<?xml version="1.0" encoding="UTF-8" standalone="no"?>
<!-- Created with Inkscape (http://www.inkscape.org/) -->

<svg
   width="88"
   height="88"
   viewBox="0 0 23.283333 23.283333"
   version="1.1"
   id="svg5"
   xml:space="preserve"
   inkscape:version="1.2.2 (732a01da63, 2022-12-09)"
   sodipodi:docname="favico.svg"
   xmlns:inkscape="http://www.inkscape.org/namespaces/inkscape"
   xmlns:sodipodi="http://sodipodi.sourceforge.net/DTD/sodipodi-0.dtd"
   xmlns:xlink="http://www.w3.org/1999/xlink"
   xmlns="http://www.w3.org/2000/svg"
   xmlns:svg="http://www.w3.org/2000/svg"><sodipodi:namedview
     id="namedview7"
     pagecolor="#ffffff"
     bordercolor="#000000"
     borderopacity="0.25"
     inkscape:showpageshadow="2"
     inkscape:pageopacity="0.0"
     inkscape:pagecheckerboard="0"
     inkscape:deskcolor="#d1d1d1"
     inkscape:document-units="mm"
     showgrid="false"
     inkscape:zoom="4.086974"
     inkscape:cx="3.9148769"
     inkscape:cy="8.3191133"
     inkscape:window-width="1920"
     inkscape:window-height="1001"
     inkscape:window-x="-9"
     inkscape:window-y="-9"
     inkscape:window-maximized="1"
     inkscape:current-layer="layer1" /><defs
     id="defs2"><linearGradient
       inkscape:collect="always"
       id="linearGradient6430"><stop
         style="stop-color:#a2e365;stop-opacity:0.75;"
         offset="0"
         id="stop6426" /><stop
         style="stop-color:#4bbb1b;stop-opacity:0.75;"
         offset="1"
         id="stop6428" /></linearGradient><linearGradient
       inkscape:collect="always"
       id="linearGradient1773"><stop
         style="stop-color:#6bd1f3;stop-opacity:0.75;"
         offset="0"
         id="stop1769" /><stop
         style="stop-color:#4aaabf;stop-opacity:0.75999999;"
         offset="1"
         id="stop1771" /></linearGradient><linearGradient
       inkscape:collect="always"
       xlink:href="#linearGradient1773"
       id="linearGradient1775"
       x1="11.005494"
       y1="2.4600515"
       x2="10.876018"
       y2="14.889786"
       gradientUnits="userSpaceOnUse"
       gradientTransform="matrix(1.0766501,0,0,1.121737,-0.58980875,-0.82192309)" /><linearGradient
       inkscape:collect="always"
       xlink:href="#linearGradient6430"
       id="linearGradient5871"
       gradientUnits="userSpaceOnUse"
       x1="11.005494"
       y1="2.4600515"
       x2="10.876018"
       y2="14.889786"
       gradientTransform="matrix(1.0766501,0,0,1.121737,2.8158962,3.0311534)" /></defs><g
     inkscape:label="Layer 1"
     inkscape:groupmode="layer"
     id="layer1"><path
       style="fill:url(#linearGradient1775);fill-opacity:1;stroke-width:0.0743397"
       d="M 6.8921677,15.319504 C 6.3487659,15.201152 5.8787946,15.002048 5.4414274,14.704891 5.266464,14.586018 4.9268755,14.391102 4.6867864,14.271744 4.0888705,13.974497 3.3097833,13.237514 3.0272728,12.701915 2.7255235,12.129841 0.49201929,4.6650671 0.43294094,4.0311897 0.37840581,3.4460576 0.49888879,2.8449043 0.78611891,2.2689957 1.058337,1.7231869 1.4639648,1.3472124 2.106292,1.0453331 2.982868,0.63336256 3.150844,0.64467996 10.099274,1.5838668 c 3.34949,0.4527349 6.289392,0.8602711 6.533115,0.9056357 1.149271,0.2139163 2.089957,1.0898451 2.522429,2.348782 0.09642,0.2806642 0.270387,0.7279524 0.386605,0.9939734 0.193673,0.4433183 0.210827,0.5550747 0.205582,1.3394066 -0.0062,0.9318068 -0.603713,5.5356125 -0.8072,6.2197875 -0.294137,0.988964 -1.100583,1.579916 -2.325222,1.703889 -0.530261,0.05368 -8.083116,0.338152 -8.7639129,0.330086 -0.2746234,-0.0032 -0.7059497,-0.05091 -0.9585024,-0.105925 z"
       id="path1695" /><path
       style="fill:url(#linearGradient5871);fill-opacity:1;stroke-width:0.0743397"
       d="M 10.297872,19.17258 C 9.7544717,19.05423 9.2844995,18.855124 8.8471322,18.557967 8.6721687,18.439095 8.3325803,18.244178 8.0924912,18.124821 7.4945753,17.827574 6.715488,17.090591 6.4329775,16.554992 6.1312282,15.982919 3.8977241,8.5181435 3.8386457,7.8842661 3.7841107,7.2991341 3.9045936,6.6979808 4.1918237,6.1220722 4.4640417,5.5762634 4.8696695,5.2002888 5.5119967,4.8984097 6.3885727,4.486439 6.5565488,4.4977565 13.504978,5.4369434 c 3.34949,0.4527349 6.289393,0.860271 6.533116,0.9056356 1.149271,0.2139162 2.089957,1.089845 2.522429,2.348782 0.09642,0.2806642 0.270388,0.7279523 0.386605,0.9939736 0.193673,0.4433174 0.210827,0.5550744 0.205582,1.3394064 -0.0062,0.931807 -0.603713,5.535613 -0.8072,6.219788 -0.294138,0.988963 -1.100584,1.579916 -2.325221,1.703889 -0.530263,0.05368 -8.083117,0.338153 -8.763915,0.330086 -0.274624,-0.0032 -0.705949,-0.05091 -0.958502,-0.105926 z"
       id="path1695-4" /></g></svg>
