<?xml version="1.0" encoding="UTF-8" standalone="no"?>
<!-- Created with Inkscape (http://www.inkscape.org/) -->

<svg
   width="152"
   height="152"
   viewBox="0 0 40.216666 40.216666"
   version="1.1"
   id="svg5"
   xml:space="preserve"
   inkscape:version="1.2.2 (732a01da63, 2022-12-09)"
   sodipodi:docname="touch-icon-ipad.svg"
   inkscape:export-filename="touch-icon-iphone.png"
   inkscape:export-xdpi="96"
   inkscape:export-ydpi="96"
   xmlns:inkscape="http://www.inkscape.org/namespaces/inkscape"
   xmlns:sodipodi="http://sodipodi.sourceforge.net/DTD/sodipodi-0.dtd"
   xmlns:xlink="http://www.w3.org/1999/xlink"
   xmlns="http://www.w3.org/2000/svg"
   xmlns:svg="http://www.w3.org/2000/svg"><sodipodi:namedview
     id="namedview7"
     pagecolor="#ffffff"
     bordercolor="#000000"
     borderopacity="0.25"
     inkscape:showpageshadow="2"
     inkscape:pageopacity="0.0"
     inkscape:pagecheckerboard="0"
     inkscape:deskcolor="#d1d1d1"
     inkscape:document-units="mm"
     showgrid="false"
     inkscape:zoom="4.086974"
     inkscape:cx="3.6701971"
     inkscape:cy="63.861429"
     inkscape:window-width="1920"
     inkscape:window-height="1001"
     inkscape:window-x="-9"
     inkscape:window-y="-9"
     inkscape:window-maximized="1"
     inkscape:current-layer="layer1"
     showguides="false" /><defs
     id="defs2"><linearGradient
       inkscape:collect="always"
       id="linearGradient8591"><stop
         style="stop-color:#74ccee;stop-opacity:0.95686275;"
         offset="0"
         id="stop8587" /><stop
         style="stop-color:#88d678;stop-opacity:0.97647059;"
         offset="1"
         id="stop8589" /></linearGradient><linearGradient
       inkscape:collect="always"
       xlink:href="#linearGradient8591"
       id="linearGradient8593"
       x1="14.630833"
       y1="0.1294764"
       x2="15.666644"
       y2="36.123913"
       gradientUnits="userSpaceOnUse"
       gradientTransform="scale(1.109489)" /></defs><g
     inkscape:label="Layer 1"
     inkscape:groupmode="layer"
     id="layer1"><rect
       style="opacity:0.98;fill:url(#linearGradient8593);fill-opacity:1;stroke:none;stroke-width:2.13758"
       id="rect8584"
       width="40.216667"
       height="40.216667"
       x="0"
       y="-5.5511151e-17" /><path
       style="fill:#ffffff;fill-opacity:0.75;stroke-width:0.119195"
       d="M 11.718588,26.41283 C 10.83412,26.225903 10.069172,25.911421 9.3572907,25.442068 9.0725114,25.254296 8.5197802,24.94645 8.1289991,24.757926 7.1558012,24.288435 5.8877197,23.124393 5.4278914,22.278432 4.936749,21.37486 1.3013855,9.5844911 1.2052265,8.583302 1.1164624,7.6591049 1.3125666,6.7096027 1.7800767,5.7999737 2.2231526,4.9378864 2.8833728,4.3440467 3.9288569,3.8672383 5.3556159,3.2165443 5.6290221,3.2344198 16.938636,4.7178349 c 5.451798,0.7150804 10.23693,1.3587723 10.633628,1.4304223 1.870609,0.3378603 3.401718,1.7213739 4.105632,3.7098267 0.156935,0.4433001 0.440094,1.1497781 0.629256,1.5699501 0.315232,0.700208 0.343154,0.876723 0.334616,2.115549 -0.01011,1.471762 -0.982634,8.743321 -1.313839,9.823954 -0.478753,1.562039 -1.791364,2.495428 -3.784648,2.691239 -0.863079,0.08478 -13.156487,0.534101 -14.264586,0.52136 -0.44699,-0.0051 -1.149039,-0.08043 -1.560107,-0.167306 z"
       id="path1695" /><path
       style="fill:#ffffff;fill-opacity:0.75;stroke-width:0.119195"
       d="M 17.261884,32.498638 C 16.377418,32.311711 15.612468,31.997229 14.900587,31.527876 14.615807,31.340104 14.063076,31.032258 13.672296,30.843738 12.699097,30.374245 11.431016,29.210206 10.971188,28.364244 10.480045,27.460672 6.8446817,15.6703 6.7485228,14.669112 6.6597588,13.744917 6.8558627,12.795413 7.323373,11.885784 7.7664487,11.023696 8.4266688,10.429857 9.4721529,9.9530479 10.898912,9.3023543 11.172318,9.3202306 22.481931,10.803642 c 5.451798,0.715081 10.236931,1.358773 10.633629,1.430423 1.870609,0.33786 3.401718,1.721374 4.105632,3.709826 0.156937,0.443301 0.440097,1.149779 0.629256,1.569951 0.315232,0.700204 0.343154,0.876723 0.334616,2.115549 -0.01011,1.471757 -0.982634,8.743322 -1.313839,9.823954 -0.478753,1.562035 -1.791367,2.495428 -3.784645,2.691239 -0.863084,0.08478 -13.156489,0.534102 -14.26459,0.521361 -0.446992,-0.0051 -1.149038,-0.08043 -1.560106,-0.167307 z"
       id="path1695-4" /></g></svg>
