<?xml version="1.0" encoding="UTF-8" standalone="no"?>
<!-- Created with Inkscape (http://www.inkscape.org/) -->

<svg
   width="180"
   height="180"
   viewBox="0 0 47.624999 47.624999"
   version="1.1"
   id="svg5"
   xml:space="preserve"
   inkscape:version="1.2.2 (732a01da63, 2022-12-09)"
   sodipodi:docname="touch-icon-iphone-retina.svg"
   inkscape:export-filename="touch-icon-iphone-retina.png"
   inkscape:export-xdpi="96"
   inkscape:export-ydpi="96"
   xmlns:inkscape="http://www.inkscape.org/namespaces/inkscape"
   xmlns:sodipodi="http://sodipodi.sourceforge.net/DTD/sodipodi-0.dtd"
   xmlns:xlink="http://www.w3.org/1999/xlink"
   xmlns="http://www.w3.org/2000/svg"
   xmlns:svg="http://www.w3.org/2000/svg"><sodipodi:namedview
     id="namedview7"
     pagecolor="#ffffff"
     bordercolor="#000000"
     borderopacity="0.25"
     inkscape:showpageshadow="2"
     inkscape:pageopacity="0.0"
     inkscape:pagecheckerboard="0"
     inkscape:deskcolor="#d1d1d1"
     inkscape:document-units="mm"
     showgrid="false"
     inkscape:zoom="1.0217435"
     inkscape:cx="12.23399"
     inkscape:cy="-64.106108"
     inkscape:window-width="1649"
     inkscape:window-height="1030"
     inkscape:window-x="7"
     inkscape:window-y="27"
     inkscape:window-maximized="0"
     inkscape:current-layer="layer1"
     showguides="false" /><defs
     id="defs2"><linearGradient
       inkscape:collect="always"
       id="linearGradient8591"><stop
         style="stop-color:#74ccee;stop-opacity:0.95686275;"
         offset="0"
         id="stop8587" /><stop
         style="stop-color:#88d678;stop-opacity:0.97647059;"
         offset="1"
         id="stop8589" /></linearGradient><linearGradient
       inkscape:collect="always"
       xlink:href="#linearGradient8591"
       id="linearGradient8593"
       x1="14.630833"
       y1="0.1294764"
       x2="15.666644"
       y2="36.123913"
       gradientUnits="userSpaceOnUse"
       gradientTransform="scale(1.3138685)" /></defs><g
     inkscape:label="Layer 1"
     inkscape:groupmode="layer"
     id="layer1"><rect
       style="opacity:0.98;fill:url(#linearGradient8593);fill-opacity:1;stroke:none;stroke-width:2.53134"
       id="rect8584"
       width="47.625"
       height="47.625"
       x="0"
       y="-5.5511151e-17" /><path
       style="fill:#ffffff;fill-opacity:0.75;stroke-width:0.141153"
       d="M 13.877274,31.278351 C 12.829878,31.056989 11.924019,30.684577 11.081001,30.128764 10.743763,29.906403 10.089213,29.541848 9.626446,29.318596 8.4739749,28.76262 6.9722995,27.384149 6.427766,26.382353 5.84615,25.312334 1.5411144,11.350055 1.4272419,10.164436 1.3221265,9.0699924 1.5543552,7.945582 2.1079855,6.8683897 2.6326806,5.847497 3.4145203,5.1442657 4.6525936,4.5796242 6.3421766,3.8090655 6.665947,3.8302339 20.058911,5.5869096 c 6.456076,0.8468058 12.12268,1.6090724 12.592454,1.6939211 2.215194,0.4000977 4.02835,2.038469 4.861932,4.3932153 0.185844,0.524961 0.521164,1.36158 0.745171,1.859151 0.373302,0.829195 0.406367,1.038225 0.396257,2.505257 -0.01197,1.742875 -1.163646,10.353931 -1.555862,11.633629 -0.566945,1.849782 -2.121353,2.955112 -4.48182,3.186993 -1.022068,0.100401 -15.580051,0.632488 -16.892273,0.6174 -0.529331,-0.006 -1.360704,-0.09525 -1.847496,-0.198125 z"
       id="path1695" /><path
       style="fill:#ffffff;fill-opacity:0.75;stroke-width:0.141153"
       d="M 20.441704,38.485228 C 19.39431,38.263867 18.488449,37.891455 17.645431,37.335642 17.308192,37.11328 16.653642,36.748725 16.190877,36.525479 15.038404,35.9695 13.53673,34.591033 12.992196,33.589236 12.410579,32.519216 8.1055439,18.556934 7.9916716,17.371317 7.8865562,16.276875 8.1187846,15.152462 8.6724152,14.07527 c 0.5246949,-1.020893 1.3065344,-1.724124 2.5446078,-2.288767 1.689583,-0.770557 2.013353,-0.749388 15.406315,1.007284 6.456078,0.846806 12.122682,1.609072 12.592455,1.693921 2.215196,0.400097 4.028351,2.038469 4.861933,4.393215 0.185847,0.524962 0.521168,1.36158 0.745172,1.859152 0.3733,0.829189 0.406367,1.038225 0.396255,2.505256 -0.01197,1.74287 -1.163645,10.353933 -1.555862,11.63363 -0.566943,1.849778 -2.121354,2.955111 -4.481815,3.186992 -1.022074,0.100402 -15.580053,0.63249 -16.892278,0.617402 -0.529332,-0.006 -1.360703,-0.09525 -1.847494,-0.198127 z"
       id="path1695-4" /></g></svg>
