<?xml version="1.0" encoding="UTF-8" standalone="no"?>
<!-- Created with Inkscape (http://www.inkscape.org/) -->

<svg
   width="137"
   height="137"
   viewBox="0 0 36.247916 36.247916"
   version="1.1"
   id="svg5"
   xml:space="preserve"
   inkscape:version="1.2.2 (732a01da63, 2022-12-09)"
   sodipodi:docname="touch-icon-iphone.svg"
   inkscape:export-filename="touch-icon-iphone.png"
   inkscape:export-xdpi="96"
   inkscape:export-ydpi="96"
   xmlns:inkscape="http://www.inkscape.org/namespaces/inkscape"
   xmlns:sodipodi="http://sodipodi.sourceforge.net/DTD/sodipodi-0.dtd"
   xmlns:xlink="http://www.w3.org/1999/xlink"
   xmlns="http://www.w3.org/2000/svg"
   xmlns:svg="http://www.w3.org/2000/svg"><sodipodi:namedview
     id="namedview7"
     pagecolor="#ffffff"
     bordercolor="#000000"
     borderopacity="0.25"
     inkscape:showpageshadow="2"
     inkscape:pageopacity="0.0"
     inkscape:pagecheckerboard="0"
     inkscape:deskcolor="#d1d1d1"
     inkscape:document-units="mm"
     showgrid="false"
     inkscape:zoom="4.086974"
     inkscape:cx="3.9148769"
     inkscape:cy="63.861429"
     inkscape:window-width="1920"
     inkscape:window-height="1001"
     inkscape:window-x="-9"
     inkscape:window-y="-9"
     inkscape:window-maximized="1"
     inkscape:current-layer="layer1" /><defs
     id="defs2"><linearGradient
       inkscape:collect="always"
       id="linearGradient8591"><stop
         style="stop-color:#74ccee;stop-opacity:0.95686275;"
         offset="0"
         id="stop8587" /><stop
         style="stop-color:#88d678;stop-opacity:0.97647059;"
         offset="1"
         id="stop8589" /></linearGradient><linearGradient
       inkscape:collect="always"
       xlink:href="#linearGradient8591"
       id="linearGradient8593"
       x1="14.630833"
       y1="0.1294764"
       x2="15.666644"
       y2="36.123913"
       gradientUnits="userSpaceOnUse" /></defs><g
     inkscape:label="Layer 1"
     inkscape:groupmode="layer"
     id="layer1"><rect
       style="opacity:0.98;fill:url(#linearGradient8593);fill-opacity:1;stroke:none;stroke-width:1.92663"
       id="rect8584"
       width="36.247917"
       height="36.247917"
       x="0"
       y="-5.5511151e-17" /><path
       style="fill:#ffffff;fill-opacity:0.75;stroke-width:0.107432"
       d="M 10.562149,23.806301 C 9.764964,23.637815 9.0755035,23.354371 8.433874,22.931338 8.177198,22.762111 7.6790126,22.484628 7.3267954,22.31471 6.4496367,21.89155 5.3066948,20.842381 4.8922443,20.079903 4.44957,19.265499 1.1729593,8.6386533 1.0862897,7.7362659 1.0062852,6.9032724 1.183037,6.047471 1.6044113,5.227608 2.0037626,4.4505951 2.5988295,3.9153581 3.5411408,3.485603 4.8271013,2.8991221 5.0735266,2.9152335 15.26706,4.2522591 c 4.913792,0.644513 9.226707,1.2246812 9.584256,1.2892622 1.686011,0.3045311 3.066023,1.5515026 3.700471,3.3437241 0.14145,0.3995533 0.396665,1.0363124 0.56716,1.4150196 0.284123,0.631108 0.309289,0.790204 0.301594,1.906778 -0.0091,1.32652 -0.885663,7.880493 -1.184184,8.854484 -0.431507,1.407889 -1.614585,2.249167 -3.411163,2.425655 -0.777907,0.07642 -11.858149,0.481393 -12.856896,0.469911 -0.40288,-0.0046 -1.035647,-0.07248 -1.406149,-0.150795 z"
       id="path1695" /><path
       style="fill:#ffffff;fill-opacity:0.75;stroke-width:0.107432"
       d="M 15.558409,29.291536 C 14.761226,29.123053 14.071764,28.839606 13.430135,28.416574 13.173458,28.247348 12.675273,27.969864 12.323056,27.799948 11.445897,27.376787 10.302955,26.327619 9.8885047,25.56514 9.4458304,24.750738 6.1692198,14.123889 6.0825502,13.221502 6.0025459,12.388509 6.1792975,11.532708 6.6006718,10.712845 7.0000229,9.9358316 7.5950898,9.4005944 8.5374011,8.9708396 9.8233617,8.3843584 10.069787,8.40047 20.26332,9.7374957 c 4.913791,0.6445133 9.226708,1.2246813 9.584256,1.2892623 1.686012,0.304531 3.066023,1.551502 3.700472,3.343724 0.14145,0.399553 0.396666,1.036312 0.567159,1.41502 0.284124,0.631106 0.309289,0.790203 0.301595,1.906778 -0.0091,1.326519 -0.885663,7.880494 -1.184184,8.854485 -0.431509,1.407886 -1.614587,2.249167 -3.411162,2.425655 -0.77791,0.07642 -11.85815,0.481394 -12.856899,0.46991 -0.402881,-0.0046 -1.035646,-0.07248 -1.406148,-0.150796 z"
       id="path1695-4" /></g></svg>
