<?xml version="1.0" encoding="UTF-8" standalone="no"?>
<!-- Created with Inkscape (http://www.inkscape.org/) -->

<svg
   width="167"
   height="167"
   viewBox="0 0 44.185416 44.185416"
   version="1.1"
   id="svg5"
   xml:space="preserve"
   inkscape:version="1.2.2 (732a01da63, 2022-12-09)"
   sodipodi:docname="touch-icon-ipad-retina.svg"
   inkscape:export-filename="touch-icon-ipad-retina.png"
   inkscape:export-xdpi="96"
   inkscape:export-ydpi="96"
   xmlns:inkscape="http://www.inkscape.org/namespaces/inkscape"
   xmlns:sodipodi="http://sodipodi.sourceforge.net/DTD/sodipodi-0.dtd"
   xmlns:xlink="http://www.w3.org/1999/xlink"
   xmlns="http://www.w3.org/2000/svg"
   xmlns:svg="http://www.w3.org/2000/svg"><sodipodi:namedview
     id="namedview7"
     pagecolor="#ffffff"
     bordercolor="#000000"
     borderopacity="0.25"
     inkscape:showpageshadow="2"
     inkscape:pageopacity="0.0"
     inkscape:pagecheckerboard="0"
     inkscape:deskcolor="#d1d1d1"
     inkscape:document-units="mm"
     showgrid="false"
     inkscape:zoom="1.0217435"
     inkscape:cx="12.23399"
     inkscape:cy="-64.106108"
     inkscape:window-width="1649"
     inkscape:window-height="1030"
     inkscape:window-x="-3"
     inkscape:window-y="15"
     inkscape:window-maximized="0"
     inkscape:current-layer="layer1"
     showguides="false" /><defs
     id="defs2"><linearGradient
       inkscape:collect="always"
       id="linearGradient8591"><stop
         style="stop-color:#74ccee;stop-opacity:0.95686275;"
         offset="0"
         id="stop8587" /><stop
         style="stop-color:#88d678;stop-opacity:0.97647059;"
         offset="1"
         id="stop8589" /></linearGradient><linearGradient
       inkscape:collect="always"
       xlink:href="#linearGradient8591"
       id="linearGradient8593"
       x1="14.630833"
       y1="0.1294764"
       x2="15.666644"
       y2="36.123913"
       gradientUnits="userSpaceOnUse"
       gradientTransform="scale(1.218978)" /></defs><g
     inkscape:label="Layer 1"
     inkscape:groupmode="layer"
     id="layer1"><rect
       style="opacity:0.98;fill:url(#linearGradient8593);fill-opacity:1;stroke:none;stroke-width:2.34852"
       id="rect8584"
       width="44.185417"
       height="44.185417"
       x="0"
       y="-5.5511151e-17" /><path
       style="fill:#ffffff;fill-opacity:0.75;stroke-width:0.130958"
       d="M 12.875027,29.019359 C 11.903276,28.813985 11.06284,28.468469 10.280707,27.952798 9.9678249,27.746496 9.3605479,27.40827 8.9312028,27.201142 7.8619657,26.68532 6.4687446,25.406405 5.9635385,24.476961 5.4239281,23.484221 1.4298117,10.530329 1.3241633,9.4303383 1.2266396,8.4149375 1.4420962,7.3717345 1.9557421,6.3723394 2.4425426,5.4251778 3.1679161,4.7727355 4.316573,4.2488736 5.8841306,3.5339664 6.1845176,3.5536059 18.610212,5.1834106 c 5.989804,0.7856476 11.247153,1.4928617 11.682999,1.5715824 2.055208,0.3712018 3.737414,1.8912463 4.510793,4.075928 0.172422,0.487047 0.483524,1.263243 0.691353,1.724879 0.346341,0.769308 0.377018,0.963242 0.367638,2.324321 -0.01111,1.617001 -1.079605,9.606148 -1.443494,10.793423 -0.525999,1.716187 -1.968144,2.741687 -4.158133,2.956821 -0.948252,0.09315 -14.454825,0.586809 -15.672276,0.57281 -0.491101,-0.0056 -1.262431,-0.08837 -1.714065,-0.183816 z"
       id="path1695" /><path
       style="fill:#ffffff;fill-opacity:0.75;stroke-width:0.130958"
       d="M 18.965359,35.70574 C 17.99361,35.500366 17.153172,35.15485 16.371039,34.639179 16.058156,34.432877 15.450879,34.094651 15.021536,33.887528 13.952297,33.371703 12.559077,32.092792 12.053871,31.163347 11.51426,30.170606 7.5201436,17.216711 7.4144954,16.116722 7.3169717,15.101323 7.532428,14.058118 8.0460742,13.058723 c 0.4868003,-0.947162 1.2121736,-1.599604 2.3608308,-2.123467 1.567557,-0.714906 1.867944,-0.695266 14.293637,0.934535 5.989805,0.785648 11.247155,1.492862 11.683,1.571583 2.055209,0.371201 3.737414,1.891246 4.510793,4.075927 0.172425,0.487048 0.483528,1.263244 0.691354,1.72488 0.34634,0.769303 0.377018,0.963242 0.367637,2.324321 -0.01111,1.616996 -1.079604,9.606149 -1.443494,10.793423 -0.525998,1.716183 -1.968146,2.741687 -4.158129,2.956821 -0.948257,0.09315 -14.454827,0.58681 -15.67228,0.572812 -0.491103,-0.0056 -1.26243,-0.08837 -1.714064,-0.183818 z"
       id="path1695-4" /></g></svg>
