<?xml version="1.0" encoding="UTF-8" standalone="no"?>
<!-- Generator: Adobe Illustrator 16.0.0, SVG Export Plug-In . SVG Version: 6.00 Build 0)  -->

<svg
   version="1.1"
   id="Layer_1"
   x="0px"
   y="0px"
   width="280px"
   height="280px"
   viewBox="0 0 280 280"
   enable-background="new 0 0 280 280"
   xml:space="preserve"
   sodipodi:docname="4fun.svg"
   inkscape:version="1.2.2 (732a01da63, 2022-12-09)"
   xmlns:inkscape="http://www.inkscape.org/namespaces/inkscape"
   xmlns:sodipodi="http://sodipodi.sourceforge.net/DTD/sodipodi-0.dtd"
   xmlns="http://www.w3.org/2000/svg"
   xmlns:svg="http://www.w3.org/2000/svg"><defs
   id="defs425" /><sodipodi:namedview
   id="namedview423"
   pagecolor="#ffffff"
   bordercolor="#000000"
   borderopacity="0.25"
   inkscape:showpageshadow="2"
   inkscape:pageopacity="0.0"
   inkscape:pagecheckerboard="0"
   inkscape:deskcolor="#d1d1d1"
   showgrid="false"
   inkscape:zoom="1.4535715"
   inkscape:cx="246.28992"
   inkscape:cy="244.914"
   inkscape:window-width="1655"
   inkscape:window-height="1030"
   inkscape:window-x="128"
   inkscape:window-y="0"
   inkscape:window-maximized="0"
   inkscape:current-layer="g420" />
<g
   id="g420">
	<rect
   x="-0.039"
   fill-rule="evenodd"
   clip-rule="evenodd"
   fill="#ED177F"
   width="280.039"
   height="280"
   id="rect394"
   style="fill:#cb52e3;fill-opacity:1" />
	
	
	
	
	
	
	
	
	
	
	
	
<path
   style="fill:#ffffff;stroke-width:0.0869685"
   d="M 102.89172,209.67427 C 52.066885,206.79395 16.891329,161.32338 29.436447,114.72046 38.900325,79.563778 74.277266,55.342436 112.57899,57.795688 c 48.84039,3.12825 83.39249,45.771452 73.75732,91.029142 -7.85928,36.91615 -43.76353,63.09824 -83.44459,60.84944 z m 30.38076,-36.88763 v -9.76222 h 11.90174 11.90173 V 150.09265 137.16089 H 145.17422 133.27248 V 111.63544 86.109988 l -21.63343,0.001 -21.633424,10e-4 -20.425347,25.494922 -20.425356,25.4949 v 12.96179 12.96084 H 73.898013 98.6411 v 9.76222 9.76221 h 17.31569 17.31569 z M 90.050372,126.12666 v -13.2375 l 0.218274,0.15496 c 0.755521,0.53636 17.043784,13.01287 17.047764,13.05827 0.003,0.0309 -3.22668,2.52596 -7.1764,5.54472 -3.949726,3.01876 -7.835692,5.99004 -8.635478,6.60285 l -1.45416,1.11418 z m 67.025578,5.28677 v -2.36659 h -4.07164 -4.07165 v -2.91599 -2.91599 h -2.3714 -2.3714 v 2.91599 2.91599 h -1.61076 -1.61076 v -2.91599 -2.91599 h -2.32666 -2.32665 v 5.28259 5.28258 h 10.38046 10.38046 z m -5.99561,-11.53313 c 3.77899,-0.54121 5.98393,-2.72468 6.25232,-6.19146 0.35747,-4.61745 -2.29411,-7.62988 -7.09234,-8.05754 -0.61994,-0.0552 -3.4209,-0.0793 -7.4375,-0.0639 l -6.44305,0.0248 -0.0237,2.38434 -0.0238,2.38434 7.00372,0.0254 c 7.84771,0.0285 7.67578,0.015 8.50523,0.6632 1.22598,0.95797 1.00995,3.03913 -0.38291,3.68872 -0.91089,0.42481 -1.3383,0.44715 -8.55247,0.44715 h -6.5708 v 2.40886 2.40886 l 6.9576,-4.9e-4 c 5.60156,-4.2e-4 7.12328,-0.0242 7.80772,-0.12226 z m 5.99561,-19.908192 v -2.45049 l -5.69434,-0.0218 -5.69435,-0.0218 5.69435,-3.58466 5.69434,-3.58465 v -2.09941 -2.0994 H 146.6941 136.31225 l 0.0237,2.38773 0.0238,2.38772 5.68241,0.0422 5.68241,0.0422 -5.68241,3.55323 -5.68241,3.55322 -0.024,2.065852 c -0.0132,1.13622 -0.004,2.11411 0.0195,2.17309 0.0348,0.0858 2.11175,0.10726 10.38211,0.10726 h 10.33852 z m 65.19111,9.126302 -6.62203,-14.534242 -6.19695,-9.9e-4 -6.19696,-9.9e-4 v 14.453152 14.45316 h -4.87703 -4.87703 V 109.01535 94.562198 h -6.26407 -6.26407 v -4.09946 -4.09947 l 20.82443,0.0213 20.82443,0.0213 5.58696,12.5323 c 3.07282,6.892762 5.61105,12.509532 5.64051,12.481702 0.0294,-0.0278 2.55745,-5.66736 5.61776,-12.532292 l 5.5642,-12.48171 5.33158,-0.0218 c 2.93237,-0.012 5.33158,0.007 5.33158,0.0423 0,0.0353 -3.81389,8.42217 -8.4753,18.637632 l -8.47531,18.57356 -4.92534,-0.002 -4.92534,-0.002 -6.62202,-14.53423 z"
   id="path1454" /></g>
</svg>
