<?xml version="1.0" encoding="UTF-8" standalone="no"?>
<!-- Generator: Adobe Illustrator 16.0.0, SVG Export Plug-In . SVG Version: 6.00 Build 0)  -->

<svg
   version="1.1"
   id="Layer_1"
   x="0px"
   y="0px"
   width="280px"
   height="280px"
   viewBox="0 0 280 280"
   enable-background="new 0 0 280 280"
   xml:space="preserve"
   sodipodi:docname="polsatfilm.svg"
   inkscape:version="1.2.2 (732a01da63, 2022-12-09)"
   xmlns:inkscape="http://www.inkscape.org/namespaces/inkscape"
   xmlns:sodipodi="http://sodipodi.sourceforge.net/DTD/sodipodi-0.dtd"
   xmlns="http://www.w3.org/2000/svg"
   xmlns:svg="http://www.w3.org/2000/svg"><defs
   id="defs425" /><sodipodi:namedview
   id="namedview423"
   pagecolor="#ffffff"
   bordercolor="#000000"
   borderopacity="0.25"
   inkscape:showpageshadow="2"
   inkscape:pageopacity="0.0"
   inkscape:pagecheckerboard="0"
   inkscape:deskcolor="#d1d1d1"
   showgrid="false"
   inkscape:zoom="1.4535715"
   inkscape:cx="295.82309"
   inkscape:cy="203.63636"
   inkscape:window-width="1655"
   inkscape:window-height="1030"
   inkscape:window-x="128"
   inkscape:window-y="0"
   inkscape:window-maximized="0"
   inkscape:current-layer="g420" />
<g
   id="g420">
	<rect
   x="-0.039"
   fill-rule="evenodd"
   clip-rule="evenodd"
   fill="#ED177F"
   width="280.039"
   height="280"
   id="rect394"
   style="fill:#ffc800;fill-opacity:1" />
	
	
	
	
	
	
	
	
	
	
	
	
<path
   style="fill:#ffffff;stroke-width:0.329571"
   d="m 23.554453,218.77927 v -23.35823 h 5.36965 c 4.88562,0 5.36903,0.0495 5.36276,0.54868 -0.004,0.30177 -0.23453,2.4534 -0.51276,4.78138 -0.61323,5.13102 -0.60339,4.78052 -0.13019,4.63777 0.2142,-0.0646 0.68078,-1.15574 1.03685,-2.4247 1.7759,-6.32898 6.64343,-9.00024 14.78812,-8.11559 11.35928,1.23382 17.33361,15.86865 11.23807,27.52896 -4.85462,9.28655 -20.52194,11.16671 -25.22166,3.02674 -1.2702,-2.20001 -1.66068,-2.23306 -1.40838,-0.1192 0.10805,0.90533 0.29948,5.06748 0.4254,9.24923 l 0.22895,7.60319 h -5.58841 -5.5884 z m 24.25365,2.55346 c 6.90371,-2.61787 6.81582,-14.97973 -0.12517,-17.60385 -5.37265,-2.03119 -11.4007,0.59968 -12.71238,5.54819 -2.27954,8.59988 4.6902,15.14511 12.83755,12.05566 z m 34.39431,8.75303 c -19.10031,-3.95032 -19.86518,-30.26849 -1.01313,-34.86056 15.52411,-3.78143 28.418077,7.40069 25.047617,21.72221 -2.25932,9.6001 -12.932367,15.43449 -24.034487,13.13835 z m 9.46239,-9.10875 c 7.50536,-3.01662 5.82943,-16.49896 -2.18614,-17.58683 -7.52934,-1.02188 -11.53486,2.19687 -11.53486,9.26916 0,7.58192 6.20022,11.34049 13.721,8.31767 z m 29.144197,9.21861 c -2.79044,-0.59499 -5.57104,-2.45065 -6.74234,-4.49956 -1.41718,-2.47901 -1.47159,-3.34954 -1.47585,-23.61244 l -0.004,-19.51745 h 5.19644 5.19643 l 0.002,17.79302 c 0.001,11.36186 0.13228,18.21779 0.36256,18.96826 0.60637,1.9761 2.71956,2.56786 5.98939,1.67723 1.46491,-0.39901 1.61584,-0.39176 1.63413,0.0784 0.0111,0.2849 0.21284,2.17211 0.44836,4.19379 l 0.42822,3.67578 -1.2459,0.45117 c -2.82662,1.0236 -7.08633,1.36815 -9.78925,0.79182 z m 23.66021,0.021 c -1.23241,-0.15614 -3.44798,-0.51997 -4.92351,-0.8085 l -2.68276,-0.52461 0.16684,-1.28973 c 0.62627,-4.84119 0.84623,-6.64612 0.84623,-6.94401 0,-0.20331 1.15237,0.006 2.85804,0.51844 8.62143,2.59153 17.46875,1.96222 17.16657,-1.22105 -0.15554,-1.63859 -1.12043,-2.09025 -7.82496,-3.66283 -11.11713,-2.60757 -13.22026,-4.23224 -13.52592,-10.44885 -0.46793,-9.51704 11.91571,-13.84248 27.66701,-9.66371 l 1.9175,0.5087 -0.41996,3.94595 c -0.50353,4.73105 -0.22498,4.42301 -3.13919,3.47161 -7.60829,-2.48385 -15.95742,-2.22505 -16.31918,0.50586 -0.19424,1.46637 0.83846,1.95325 6.73968,3.17749 3.02111,0.62675 6.30485,1.35249 7.29719,1.61275 9.09697,2.38587 10.36385,14.87234 1.93043,19.02653 -3.51717,1.73251 -11.71205,2.56149 -17.75401,1.79596 z m 40.53683,-0.0224 c -14.597,-2.58967 -17.47011,-27.25647 -3.93125,-33.75143 6.81449,-3.26909 15.63587,-1.97978 18.89227,2.76124 1.48341,2.15971 1.72603,1.97102 1.44834,-1.12641 l -0.23968,-2.67344 5.33144,0.0868 5.33143,0.0868 0.0896,17.00918 0.0896,17.00918 h -5.55778 -5.55778 l 0.2006,-1.48928 c 0.83677,-6.21232 1.05962,-9.17085 0.6908,-9.17085 -0.2167,0 -0.59836,0.93055 -0.84815,2.06789 -1.56785,7.13882 -7.67032,10.65738 -15.93942,9.19035 z m 11.41,-9.15 c 5.15855,-2.38456 6.18542,-11.95865 1.69565,-15.80943 -4.50118,-3.86056 -13.10189,-2.12647 -14.79322,2.98263 -3.13367,9.46609 4.40229,16.84624 13.09757,12.8268 z m 35.44131,9.05989 c -6.95058,-2.07191 -8.06696,-4.39893 -8.06696,-16.81509 v -9.0891 h -2.95442 -2.95443 l 0.0964,-4.31109 0.0964,-4.31108 2.84683,-0.0909 2.84682,-0.0909 0.0978,-3.50827 0.0978,-3.50827 4.15714,-0.53329 c 2.28644,-0.29331 4.58586,-0.61015 5.10983,-0.70408 l 0.95268,-0.17078 v 4.22486 4.22486 h 4.50358 4.50357 v 4.38947 4.38946 h -4.50357 -4.50358 l 0.002,6.81935 c 0.002,7.08094 0.23186,8.69767 1.36899,9.62904 0.95738,0.78414 4.56066,0.97638 6.75399,0.36032 0.94379,-0.26509 1.76704,-0.43576 1.82945,-0.37928 0.0957,0.0866 1.11937,7.42777 1.12835,8.09196 0.0154,1.13472 -10.57648,2.22704 -13.40862,1.3828 z M 127.67839,150.56146 c -4.01629,-0.34663 -10.90348,-1.5636 -13.87919,-2.45246 l -2.07858,-0.62089 2.25179,0.21632 c 21.30687,2.04684 35.11366,-2.77737 59.05097,-20.63293 11.49018,-8.57086 16.76059,-10.79938 21.1163,-8.92873 2.16787,0.93104 2.19186,1.40244 0.20682,4.0648 -14.38586,19.29456 -40.91335,30.57667 -66.66811,28.35389 z m -24.36298,-7.51356 c -9.350177,-1.52028 -22.596927,-11.32965 -30.043827,-22.24778 -0.93554,-1.37162 -0.90078,-1.35356 1.24869,0.64873 8.86268,8.25583 22.14442,11.26933 34.932547,7.92584 10.2378,-2.6767 17.76795,-6.89843 43.49285,-24.38398 13.64637,-9.27562 18.45438,-12.28724 23.03364,-14.427756 13.46457,-6.293833 25.36733,-4.214913 28.56617,4.989336 0.6522,1.87662 0.18442,5.08856 -1.45428,9.98567 l -0.61084,1.82542 -1.09387,-1.40453 c -5.86135,-7.52595 -13.9546,-4.50245 -46.53546,17.38486 -23.42505,15.73658 -39.09339,21.72723 -51.53562,19.70419 z M 83.510463,118.59867 c -9.97458,-1.90721 -17.06678,-8.20075 -18.89514,-16.76731 -0.65408,-3.06464 -1.55178,-8.191118 -1.56175,-8.918703 -0.003,-0.249316 0.4371,0.17936 0.97893,0.952611 4.4021,6.282252 16.84601,8.979932 27.98568,6.066932 8.755877,-2.28964 14.912487,-5.63188 34.598887,-18.782707 19.34011,-12.919497 24.99399,-16.348697 33.03026,-20.033577 17.00499,-7.79732 29.93748,-7.42324 38.67577,1.1187 3.75081,3.66653 4.90835,6.30156 6.57898,14.976453 1.23064,6.390163 1.20321,6.559264 -0.65684,4.049857 -6.1806,-8.338268 -17.37305,-10.60491 -30.03177,-6.081901 -9.13955,3.265597 -16.38971,7.4424 -37.03032,21.333095 -20.71583,13.94132 -29.87883,18.84454 -39.839327,21.31843 -3.65212,0.90708 -10.97892,1.31391 -13.83336,0.76812 z m -9.5506,-31.154103 c -5.1006,-1.122596 -9.50029,-5.274552 -10.11057,-9.541288 -0.16321,-1.141058 0.65984,-5.094983 1.79845,-8.639743 l 0.58679,-1.82682 0.6158,0.89359 c 5.33966,7.74835 14.27536,5.012455 40.109097,-12.28043 21.86642,-14.63719 30.10342,-19.19235 40.09694,-22.17408 16.12722,-4.81181 25.34245,-2.55045 38.62746,9.47896 6.41024,5.80439 12.84756,13.73782 7.214,8.89062 -9.12648,-7.85256 -22.43405,-10.29117 -35.44859,-6.49593 -9.03439,2.63457 -17.76307,7.61788 -40.88532,23.34194 C 91.137623,86.382288 83.696963,89.587611 73.959863,87.444567 Z m 0.53751,-30.847271 c -2.46877,-1.23764 -2.41809,-1.42165 1.7879,-6.49147 17.36973,-20.93713 46.976847,-30.37349 75.740767,-24.14005 1.97117,0.42717 3.84189,0.9279 4.15714,1.11272 0.48995,0.28724 0.47257,0.30656 -0.11965,0.13298 -1.45393,-0.42612 -13.19339,-0.55636 -16.80181,-0.1864 -14.39448,1.47583 -23.96144,6.04614 -44.342897,21.1834 -10.82058,8.03641 -16.48385,10.36279 -20.42145,8.38882 z"
   id="path1365" /><path
   style="fill:#ffffff;stroke-width:0.472536"
   d="m 162.97745,257.22635 c 0.14954,-13.49897 0.18857,-14.00276 1.25547,-16.20413 0.71392,-1.47305 1.86787,-2.81302 3.28153,-3.8105 2.1361,-1.50723 2.30181,-1.54187 8.15746,-1.7054 l 5.97707,-0.16691 v 4.33464 4.33464 h -4.35975 c -2.76585,0 -4.5654,0.20896 -4.92229,0.57158 -0.3094,0.31436 -0.56254,1.70757 -0.56254,3.09602 v 2.52446 h 4.92229 4.92229 v 4.04865 4.04865 h -4.92229 -4.92229 v 6.43021 6.43021 h -4.49065 -4.49064 z m 22.89063,1.54801 v -12.38411 h 3.98472 3.98471 v 12.38411 12.38411 h -3.98471 -3.98472 z m 14.06369,-5.47759 v -17.86169 h 3.98471 3.98471 v 17.86169 17.8617 h -3.98471 -3.98471 z m 13.20017,8.6927 c 0.1883,-10.76801 0.56212,-11.99632 4.38512,-14.40844 1.96565,-1.24022 2.70779,-1.42894 5.61952,-1.42894 2.98614,0 3.55233,0.1531 5.15249,1.39319 1.7973,1.39286 1.79805,1.39298 3.24504,0.52356 3.43162,-2.06187 4.10145,-2.26383 6.84064,-2.06251 3.51751,0.25851 6.77526,2.21852 8.15914,4.90888 0.87602,1.70305 0.99627,2.87834 1.13306,11.07426 l 0.15305,9.169 h -4.02056 -4.02055 v -7.35183 c 0,-4.0435 -0.2035,-7.89564 -0.45221,-8.56031 -0.52908,-1.41391 -2.32278,-2.02036 -3.72324,-1.25883 -0.93829,0.51022 -0.98124,0.89767 -0.98124,8.85227 v 8.3187 h -4.21911 -4.2191 v -8.34567 -8.34567 l -1.17198,-0.54255 c -1.6026,-0.74191 -3.31814,0.0927 -3.63325,1.76756 -0.1327,0.70531 -0.12995,4.47377 0.006,8.37436 l 0.24739,7.09197 h -4.33035 -4.33034 z M 186.7696,242.6164 c -1.79609,-1.82492 -1.85471,-4.14176 -0.15666,-6.19215 1.64878,-1.99091 4.60977,-2.08709 6.45745,-0.20975 2.74719,2.79126 0.68187,7.79419 -3.21759,7.79419 -1.26814,0 -2.06869,-0.36151 -3.0832,-1.39229 z"
   id="path130" /></g>
</svg>
