<?xml version="1.0" encoding="UTF-8" standalone="no"?>
<!-- Generator: Adobe Illustrator 16.0.0, SVG Export Plug-In . SVG Version: 6.00 Build 0)  -->

<svg
   version="1.1"
   id="Layer_1"
   x="0px"
   y="0px"
   width="280px"
   height="280px"
   viewBox="0 0 280 280"
   enable-background="new 0 0 280 280"
   xml:space="preserve"
   sodipodi:docname="polsatnews.svg"
   inkscape:version="1.2.2 (732a01da63, 2022-12-09)"
   xmlns:inkscape="http://www.inkscape.org/namespaces/inkscape"
   xmlns:sodipodi="http://sodipodi.sourceforge.net/DTD/sodipodi-0.dtd"
   xmlns="http://www.w3.org/2000/svg"
   xmlns:svg="http://www.w3.org/2000/svg"><defs
   id="defs425" /><sodipodi:namedview
   id="namedview423"
   pagecolor="#ffffff"
   bordercolor="#000000"
   borderopacity="0.25"
   inkscape:showpageshadow="2"
   inkscape:pageopacity="0.0"
   inkscape:pagecheckerboard="0"
   inkscape:deskcolor="#d1d1d1"
   showgrid="false"
   inkscape:zoom="1.4535715"
   inkscape:cx="246.28992"
   inkscape:cy="225.6511"
   inkscape:window-width="1655"
   inkscape:window-height="1030"
   inkscape:window-x="128"
   inkscape:window-y="0"
   inkscape:window-maximized="0"
   inkscape:current-layer="g420" />
<g
   id="g420">
	<rect
   x="-0.039"
   fill-rule="evenodd"
   clip-rule="evenodd"
   fill="#ED177F"
   width="280.039"
   height="280"
   id="rect394"
   style="fill:#ffc800;fill-opacity:1" />
	
	
	
	
	
	
	
	
	
	
	
	
<path
   style="fill:#ffffff;stroke-width:0.329571"
   d="m 23.554453,218.77927 v -23.35823 h 5.36965 c 4.88562,0 5.36903,0.0495 5.36276,0.54868 -0.004,0.30177 -0.23453,2.4534 -0.51276,4.78138 -0.61323,5.13102 -0.60339,4.78052 -0.13019,4.63777 0.2142,-0.0646 0.68078,-1.15574 1.03685,-2.4247 1.7759,-6.32898 6.64343,-9.00024 14.78812,-8.11559 11.35928,1.23382 17.33361,15.86865 11.23807,27.52896 -4.85462,9.28655 -20.52194,11.16671 -25.22166,3.02674 -1.2702,-2.20001 -1.66068,-2.23306 -1.40838,-0.1192 0.10805,0.90533 0.29948,5.06748 0.4254,9.24923 l 0.22895,7.60319 h -5.58841 -5.5884 z m 24.25365,2.55346 c 6.90371,-2.61787 6.81582,-14.97973 -0.12517,-17.60385 -5.37265,-2.03119 -11.4007,0.59968 -12.71238,5.54819 -2.27954,8.59988 4.6902,15.14511 12.83755,12.05566 z m 34.39431,8.75303 c -19.10031,-3.95032 -19.86518,-30.26849 -1.01313,-34.86056 15.52411,-3.78143 28.418077,7.40069 25.047617,21.72221 -2.25932,9.6001 -12.932367,15.43449 -24.034487,13.13835 z m 9.46239,-9.10875 c 7.50536,-3.01662 5.82943,-16.49896 -2.18614,-17.58683 -7.52934,-1.02188 -11.53486,2.19687 -11.53486,9.26916 0,7.58192 6.20022,11.34049 13.721,8.31767 z m 29.144197,9.21861 c -2.79044,-0.59499 -5.57104,-2.45065 -6.74234,-4.49956 -1.41718,-2.47901 -1.47159,-3.34954 -1.47585,-23.61244 l -0.004,-19.51745 h 5.19644 5.19643 l 0.002,17.79302 c 0.001,11.36186 0.13228,18.21779 0.36256,18.96826 0.60637,1.9761 2.71956,2.56786 5.98939,1.67723 1.46491,-0.39901 1.61584,-0.39176 1.63413,0.0784 0.0111,0.2849 0.21284,2.17211 0.44836,4.19379 l 0.42822,3.67578 -1.2459,0.45117 c -2.82662,1.0236 -7.08633,1.36815 -9.78925,0.79182 z m 23.66021,0.021 c -1.23241,-0.15614 -3.44798,-0.51997 -4.92351,-0.8085 l -2.68276,-0.52461 0.16684,-1.28973 c 0.62627,-4.84119 0.84623,-6.64612 0.84623,-6.94401 0,-0.20331 1.15237,0.006 2.85804,0.51844 8.62143,2.59153 17.46875,1.96222 17.16657,-1.22105 -0.15554,-1.63859 -1.12043,-2.09025 -7.82496,-3.66283 -11.11713,-2.60757 -13.22026,-4.23224 -13.52592,-10.44885 -0.46793,-9.51704 11.91571,-13.84248 27.66701,-9.66371 l 1.9175,0.5087 -0.41996,3.94595 c -0.50353,4.73105 -0.22498,4.42301 -3.13919,3.47161 -7.60829,-2.48385 -15.95742,-2.22505 -16.31918,0.50586 -0.19424,1.46637 0.83846,1.95325 6.73968,3.17749 3.02111,0.62675 6.30485,1.35249 7.29719,1.61275 9.09697,2.38587 10.36385,14.87234 1.93043,19.02653 -3.51717,1.73251 -11.71205,2.56149 -17.75401,1.79596 z m 40.53683,-0.0224 c -14.597,-2.58967 -17.47011,-27.25647 -3.93125,-33.75143 6.81449,-3.26909 15.63587,-1.97978 18.89227,2.76124 1.48341,2.15971 1.72603,1.97102 1.44834,-1.12641 l -0.23968,-2.67344 5.33144,0.0868 5.33143,0.0868 0.0896,17.00918 0.0896,17.00918 h -5.55778 -5.55778 l 0.2006,-1.48928 c 0.83677,-6.21232 1.05962,-9.17085 0.6908,-9.17085 -0.2167,0 -0.59836,0.93055 -0.84815,2.06789 -1.56785,7.13882 -7.67032,10.65738 -15.93942,9.19035 z m 11.41,-9.15 c 5.15855,-2.38456 6.18542,-11.95865 1.69565,-15.80943 -4.50118,-3.86056 -13.10189,-2.12647 -14.79322,2.98263 -3.13367,9.46609 4.40229,16.84624 13.09757,12.8268 z m 35.44131,9.05989 c -6.95058,-2.07191 -8.06696,-4.39893 -8.06696,-16.81509 v -9.0891 h -2.95442 -2.95443 l 0.0964,-4.31109 0.0964,-4.31108 2.84683,-0.0909 2.84682,-0.0909 0.0978,-3.50827 0.0978,-3.50827 4.15714,-0.53329 c 2.28644,-0.29331 4.58586,-0.61015 5.10983,-0.70408 l 0.95268,-0.17078 v 4.22486 4.22486 h 4.50358 4.50357 v 4.38947 4.38946 h -4.50357 -4.50358 l 0.002,6.81935 c 0.002,7.08094 0.23186,8.69767 1.36899,9.62904 0.95738,0.78414 4.56066,0.97638 6.75399,0.36032 0.94379,-0.26509 1.76704,-0.43576 1.82945,-0.37928 0.0957,0.0866 1.11937,7.42777 1.12835,8.09196 0.0154,1.13472 -10.57648,2.22704 -13.40862,1.3828 z M 127.67839,150.56146 c -4.01629,-0.34663 -10.90348,-1.5636 -13.87919,-2.45246 l -2.07858,-0.62089 2.25179,0.21632 c 21.30687,2.04684 35.11366,-2.77737 59.05097,-20.63293 11.49018,-8.57086 16.76059,-10.79938 21.1163,-8.92873 2.16787,0.93104 2.19186,1.40244 0.20682,4.0648 -14.38586,19.29456 -40.91335,30.57667 -66.66811,28.35389 z m -24.36298,-7.51356 c -9.350177,-1.52028 -22.596927,-11.32965 -30.043827,-22.24778 -0.93554,-1.37162 -0.90078,-1.35356 1.24869,0.64873 8.86268,8.25583 22.14442,11.26933 34.932547,7.92584 10.2378,-2.6767 17.76795,-6.89843 43.49285,-24.38398 13.64637,-9.27562 18.45438,-12.28724 23.03364,-14.427756 13.46457,-6.293833 25.36733,-4.214913 28.56617,4.989336 0.6522,1.87662 0.18442,5.08856 -1.45428,9.98567 l -0.61084,1.82542 -1.09387,-1.40453 c -5.86135,-7.52595 -13.9546,-4.50245 -46.53546,17.38486 -23.42505,15.73658 -39.09339,21.72723 -51.53562,19.70419 z M 83.510463,118.59867 c -9.97458,-1.90721 -17.06678,-8.20075 -18.89514,-16.76731 -0.65408,-3.06464 -1.55178,-8.191118 -1.56175,-8.918703 -0.003,-0.249316 0.4371,0.17936 0.97893,0.952611 4.4021,6.282252 16.84601,8.979932 27.98568,6.066932 8.755877,-2.28964 14.912487,-5.63188 34.598887,-18.782707 19.34011,-12.919497 24.99399,-16.348697 33.03026,-20.033577 17.00499,-7.79732 29.93748,-7.42324 38.67577,1.1187 3.75081,3.66653 4.90835,6.30156 6.57898,14.976453 1.23064,6.390163 1.20321,6.559264 -0.65684,4.049857 -6.1806,-8.338268 -17.37305,-10.60491 -30.03177,-6.081901 -9.13955,3.265597 -16.38971,7.4424 -37.03032,21.333095 -20.71583,13.94132 -29.87883,18.84454 -39.839327,21.31843 -3.65212,0.90708 -10.97892,1.31391 -13.83336,0.76812 z m -9.5506,-31.154103 c -5.1006,-1.122596 -9.50029,-5.274552 -10.11057,-9.541288 -0.16321,-1.141058 0.65984,-5.094983 1.79845,-8.639743 l 0.58679,-1.82682 0.6158,0.89359 c 5.33966,7.74835 14.27536,5.012455 40.109097,-12.28043 21.86642,-14.63719 30.10342,-19.19235 40.09694,-22.17408 16.12722,-4.81181 25.34245,-2.55045 38.62746,9.47896 6.41024,5.80439 12.84756,13.73782 7.214,8.89062 -9.12648,-7.85256 -22.43405,-10.29117 -35.44859,-6.49593 -9.03439,2.63457 -17.76307,7.61788 -40.88532,23.34194 C 91.137623,86.382288 83.696963,89.587611 73.959863,87.444567 Z m 0.53751,-30.847271 c -2.46877,-1.23764 -2.41809,-1.42165 1.7879,-6.49147 17.36973,-20.93713 46.976847,-30.37349 75.740767,-24.14005 1.97117,0.42717 3.84189,0.9279 4.15714,1.11272 0.48995,0.28724 0.47257,0.30656 -0.11965,0.13298 -1.45393,-0.42612 -13.19339,-0.55636 -16.80181,-0.1864 -14.39448,1.47583 -23.96144,6.04614 -44.342897,21.1834 -10.82058,8.03641 -16.48385,10.36279 -20.42145,8.38882 z"
   id="path1365" /><path
   style="fill:#ffffff;stroke-width:0.401545"
   d="m 177.50598,270.58274 c -0.84263,-1.23302 -2.62313,-5.29387 -4.4825,-10.22337 l -3.08461,-8.17784 -0.0925,9.98816 -0.0925,9.98814 h -3.24916 -3.24917 l 0.002,-16.11278 c 0.002,-15.18804 0.04,-16.19979 0.67484,-17.62909 0.77843,-1.75242 1.80164,-2.22714 4.05688,-1.88217 2.07836,0.3179 2.53038,1.09379 6.08749,10.44921 l 2.78851,7.33394 0.22157,-2.90971 c 0.12186,-1.60034 0.22156,-5.52492 0.22156,-8.72128 v -5.81157 h 3.31081 3.3108 l -0.22619,11.36689 c -0.12441,6.25178 -0.22619,13.67759 -0.22619,16.50179 0,5.04818 -0.0169,5.15815 -1.00184,6.51007 -1.57135,2.15688 -3.18584,1.93907 -4.96909,-0.67039 z m 15.90802,1.63414 c -3.40415,-1.53296 -5.8207,-5.27025 -6.45459,-9.98228 -0.45503,-3.3825 0.0223,-6.69279 1.35046,-9.36562 3.95966,-7.96841 11.74254,-7.52159 15.84097,0.90946 l 0.55616,1.1441 -4.26852,3.91319 c -2.3477,2.15225 -4.40718,3.91318 -4.57664,3.91318 -0.16945,0 -0.78172,-0.99942 -1.36061,-2.22092 l -1.0525,-2.22094 2.38525,-2.05276 c 1.31189,-1.129 2.29798,-2.24659 2.19129,-2.48352 -0.31667,-0.70333 -3.0241,-0.48989 -3.84928,0.30345 -1.73522,1.66828 -2.28199,5.45696 -1.22766,8.5067 1.0957,3.16942 3.88662,3.92129 6.15727,1.65878 0.73518,-0.73254 1.55554,-1.89689 1.82302,-2.58745 0.26749,-0.69056 0.61963,-1.25556 0.78254,-1.25556 0.26851,0 3.696,2.2477 3.99947,2.62279 0.28445,0.3516 -1.725,4.40316 -2.86563,5.77781 -1.98557,2.39298 -3.88247,3.48551 -6.34417,3.65399 -1.22527,0.0839 -2.61435,-0.0217 -3.08683,-0.2344 z m 19.36675,-0.0631 c -1.47392,-0.62913 -3.60505,-3.19494 -4.15541,-5.00294 -0.34415,-1.13061 -0.47152,-3.96746 -0.47152,-10.5026 v -8.95358 h 2.91325 2.91324 v 7.98673 c 0,7.95751 0.003,7.98951 0.84006,8.74227 1.06104,0.95426 2.17797,0.50871 2.60693,-1.03995 0.17771,-0.64156 0.3231,-4.43406 0.3231,-8.42777 v -7.26128 h 2.91324 2.91325 v 7.97091 c 0,7.70359 0.0256,7.99546 0.76174,8.70324 1.00672,0.96788 1.49794,0.92377 2.32288,-0.20854 0.63007,-0.86487 0.68547,-1.56816 0.68547,-8.70326 v -7.76235 h 2.91324 2.91325 v 8.83879 c 0,8.23219 -0.0529,8.98247 -0.77115,10.9324 -1.51029,4.1003 -5.70532,6.2072 -8.96101,4.50053 -0.82178,-0.43078 -1.76324,-1.19138 -2.09214,-1.69024 -0.58729,-0.89075 -0.62624,-0.88033 -2.17529,0.58259 -1.71446,1.61913 -4.37251,2.15756 -6.39313,1.29505 z m 22.79187,-3.47813 v -3.5745 h 3.42735 c 3.88066,0 4.46416,-0.62669 2.00228,-2.15051 -0.78379,-0.48513 -2.0295,-1.48307 -2.76825,-2.21762 -3.25296,-3.23449 -3.03063,-9.45797 0.42756,-11.96814 1.25906,-0.9139 1.9922,-1.07022 5.01924,-1.07022 h 3.54481 v 3.29311 3.29313 h -2.76701 c -2.44974,0 -2.75408,0.0944 -2.65419,0.82328 0.062,0.45281 1.03647,1.49714 2.16538,2.32074 1.1289,0.8236 2.55463,2.24947 3.16829,3.1686 0.96427,1.44429 1.11555,2.00737 1.11445,4.14789 -0.002,2.96832 -0.84223,5.12179 -2.46839,6.32292 -0.87326,0.64501 -2.15786,0.8738 -5.67029,1.00988 l -4.54123,0.17595 z"
   id="path217" /></g>
</svg>
