<?xml version="1.0" encoding="UTF-8" standalone="no"?>
<!-- Generator: Adobe Illustrator 16.0.0, SVG Export Plug-In . SVG Version: 6.00 Build 0)  -->

<svg
   version="1.1"
   id="Layer_1"
   x="0px"
   y="0px"
   width="280px"
   height="280px"
   viewBox="0 0 280 280"
   enable-background="new 0 0 280 280"
   xml:space="preserve"
   sodipodi:docname="tvp1.svg"
   inkscape:version="1.2.2 (732a01da63, 2022-12-09)"
   xmlns:inkscape="http://www.inkscape.org/namespaces/inkscape"
   xmlns:sodipodi="http://sodipodi.sourceforge.net/DTD/sodipodi-0.dtd"
   xmlns="http://www.w3.org/2000/svg"
   xmlns:svg="http://www.w3.org/2000/svg"><defs
   id="defs425" /><sodipodi:namedview
   id="namedview423"
   pagecolor="#ffffff"
   bordercolor="#000000"
   borderopacity="0.25"
   inkscape:showpageshadow="2"
   inkscape:pageopacity="0.0"
   inkscape:pagecheckerboard="0"
   inkscape:deskcolor="#d1d1d1"
   showgrid="false"
   inkscape:zoom="1.4535715"
   inkscape:cx="224.96314"
   inkscape:cy="168.55037"
   inkscape:window-width="1655"
   inkscape:window-height="1030"
   inkscape:window-x="128"
   inkscape:window-y="0"
   inkscape:window-maximized="0"
   inkscape:current-layer="g420" />
<g
   id="g420">
	<rect
   x="-0.039"
   fill-rule="evenodd"
   clip-rule="evenodd"
   fill="#ED177F"
   width="280.039"
   height="280"
   id="rect394"
   style="fill:#43b4d9;fill-opacity:1" />
	
	
	
	
	
	
	
	
	
	
	
	
<path
   style="fill:#ffffff;stroke-width:0.26735"
   d="M 17.579873,130.49769 V 88.916817 h 88.054237 88.05423 v 41.580873 41.58088 H 105.63411 17.579873 Z m 57.499541,0 V 92.797707 H 48.392405 21.705401 v 37.699983 37.7 h 26.687004 26.687009 z m -31.972839,5.40552 v -20.65184 h -6.703982 -6.703981 v -4.98971 -4.9897 h 18.564871 18.564876 v 4.9897 4.98971 h -6.703982 -6.70398 v 20.65184 20.65183 h -5.156914 -5.156908 z m 89.214535,-5.40552 V 92.797707 h -26.687 -26.687013 v 37.699983 37.7 h 26.687013 26.687 z m -27.04134,26.86481 c -0.13453,-0.36787 -5.02493,-12.20755 -10.867569,-26.3104 -5.84264,-14.10285 -10.682343,-25.86242 -10.7549,-26.13238 -0.123671,-0.46015 0.204029,-0.48614 5.241882,-0.4158 l 5.373798,0.075 5.610536,13.7217 c 3.085803,7.54693 5.622203,13.97117 5.636453,14.2761 0.0191,0.40751 0.0973,0.33406 0.29513,-0.27721 0.31705,-0.97943 10.41561,-25.98122 10.94478,-27.09687 l 0.36159,-0.76232 h 5.27921 c 3.09336,0 5.27922,0.10705 5.27922,0.25853 0,0.36403 -21.64983,52.77073 -21.92775,53.07944 -0.13493,0.14988 -0.32752,-0.0197 -0.47238,-0.41581 z m 84.54088,-26.86481 V 92.797707 h -26.687 -26.68701 v 37.699983 37.7 h 26.68701 26.687 z m -42.02881,0.39614 v -25.66122 l 8.70229,0.11247 c 9.65282,0.12476 10.06238,0.18717 13.73027,2.0926 1.48265,0.77023 2.4459,1.55641 4.1286,3.36963 3.31209,3.56904 4.68502,7.10529 4.68502,12.06722 0,7.04674 -3.52464,12.87012 -9.63572,15.92005 -2.70614,1.35059 -5.22972,1.96289 -8.91157,2.16226 l -2.90076,0.15706 v 7.72057 7.72057 h -4.89907 -4.89906 z m 17.36971,-0.39503 c 2.90817,-1.19074 4.40917,-3.76632 4.36253,-7.48567 -0.0419,-3.33908 -1.2163,-5.574 -3.58328,-6.81901 -1.30853,-0.68828 -1.79148,-0.77591 -4.9012,-0.88929 l -3.44963,-0.12578 v 8.11318 8.11319 l 3.02968,-0.14373 c 2.26677,-0.10753 3.41048,-0.29963 4.5419,-0.76289 z m 68.34883,36.24356 c 0.0848,-2.93492 0.26653,-12.50892 0.40377,-21.27555 0.13725,-8.76664 0.32376,-19.02778 0.41449,-22.80254 l 0.16495,-6.86319 -6.9302,4.61693 c -3.81161,2.53932 -7.13458,4.67592 -7.38438,4.74801 -0.42899,0.12381 -0.45045,-0.48892 -0.38677,-11.04833 l 0.0674,-11.17941 16.49946,-9.228373 c 9.07469,-5.07561 16.58766,-9.22838 16.6955,-9.22838 0.10783,0 0.19603,19.709333 0.19603,43.798523 v 43.79852 h -9.94726 -9.94725 z"
   id="path355" /></g>
</svg>
