<?xml version="1.0" encoding="UTF-8" standalone="no"?>
<!-- Generator: Adobe Illustrator 16.0.0, SVG Export Plug-In . SVG Version: 6.00 Build 0)  -->

<svg
   version="1.1"
   id="Layer_1"
   x="0px"
   y="0px"
   width="280px"
   height="280px"
   viewBox="0 0 280 280"
   enable-background="new 0 0 280 280"
   xml:space="preserve"
   sodipodi:docname="tvp2.svg"
   inkscape:version="1.2.2 (732a01da63, 2022-12-09)"
   xmlns:inkscape="http://www.inkscape.org/namespaces/inkscape"
   xmlns:sodipodi="http://sodipodi.sourceforge.net/DTD/sodipodi-0.dtd"
   xmlns="http://www.w3.org/2000/svg"
   xmlns:svg="http://www.w3.org/2000/svg"><defs
   id="defs425" /><sodipodi:namedview
   id="namedview423"
   pagecolor="#ffffff"
   bordercolor="#000000"
   borderopacity="0.25"
   inkscape:showpageshadow="2"
   inkscape:pageopacity="0.0"
   inkscape:pagecheckerboard="0"
   inkscape:deskcolor="#d1d1d1"
   showgrid="false"
   inkscape:zoom="0.18169644"
   inkscape:cx="1155.7739"
   inkscape:cy="253.16952"
   inkscape:window-width="1655"
   inkscape:window-height="1030"
   inkscape:window-x="128"
   inkscape:window-y="0"
   inkscape:window-maximized="0"
   inkscape:current-layer="g420" />
<g
   id="g420">
	<rect
   x="-0.039"
   fill-rule="evenodd"
   clip-rule="evenodd"
   fill="#ED177F"
   width="280.039"
   height="280"
   id="rect394"
   style="fill:#e2762d;fill-opacity:1" />
	
	
	
	
	
	
	
	
	
	
	
	
<path
   style="fill:#ffffff;stroke-width:0.126708"
   d="m 295.97266,132.43247 c 0,-41.997333 0.0408,-63.127786 0.12183,-63.127786 0.0811,0 0.12182,21.130453 0.12182,63.127786 0,41.99733 -0.0407,63.12778 -0.12182,63.12778 -0.081,0 -0.12183,-21.13045 -0.12183,-63.12778 z m -86.65907,41.61491 c 0.0512,-0.0895 8.23687,-10.57183 18.19051,-23.29402 9.95365,-12.7222 18.46862,-23.64615 18.92217,-24.27545 3.66447,-5.08459 5.26146,-9.44566 4.84793,-13.23886 -0.29537,-2.70951 -0.97378,-4.27471 -2.6211,-6.04739 -1.66452,-1.7912 -3.1999,-2.55175 -5.70869,-2.82782 -2.28889,-0.25188 -4.63648,0.18686 -6.44435,1.20436 -3.438,1.93501 -5.33532,6.22646 -5.33667,12.07074 v 1.48266 h -9.62399 -9.62399 v -1.09388 c 0,-0.60164 0.0571,-1.89154 0.12698,-2.86646 0.60155,-8.39733 3.32557,-15.13413 8.07621,-19.973379 4.40902,-4.491263 9.78622,-7.032291 16.70953,-7.896194 2.04707,-0.255425 6.72965,-0.290745 8.95397,-0.0675 7.69357,0.772108 13.77056,3.599324 18.3854,8.553523 4.43177,4.75766 6.71359,11.08007 6.70905,18.58937 -0.004,7.06632 -2.40001,13.4218 -7.77687,20.63061 -1.24227,1.66552 -3.37183,4.23938 -11.99845,14.50169 l -5.31768,6.32596 12.18154,0.0335 12.18153,0.0336 v 9.15883 9.15882 h -30.46283 c -24.14234,0 -30.44356,-0.0338 -30.36986,-0.16276 z M 16.87711,131.9053 V 89.864047 h 88.68684 88.68685 V 131.9053 173.94657 H 105.56395 16.87711 Z m 57.743906,0 V 93.685979 H 47.698228 20.775433 v 38.219321 38.21933 h 26.922795 26.922788 z m -32.039342,5.46932 v -21.02063 h -6.7626 -6.762599 l 0.03193,-5.041 0.03193,-5.041 h 18.638853 18.638853 l 0.03193,5.041 0.03193,5.041 h -6.7626 -6.7626 v 21.02063 21.02063 H 47.759249 42.581788 Z M 132.48675,131.9053 V 93.685979 h -26.9228 -26.922787 v 38.219321 38.21933 h 26.922787 26.9228 z m -38.074001,0.97088 c -6.094777,-14.83087 -11.099688,-27.01741 -11.122023,-27.08123 -0.02299,-0.0658 2.306904,-0.11601 5.377618,-0.11601 4.220267,0 5.431943,0.0364 5.480274,0.16474 0.0341,0.0906 2.487566,6.15463 5.452089,13.4756 2.964523,7.32098 5.512603,13.7546 5.662403,14.29693 l 0.27238,0.98605 0.20632,-0.79546 c 0.11347,-0.43752 2.68504,-6.93042 5.71459,-14.42871 l 5.50828,-13.63326 5.45437,-0.0343 c 2.9999,-0.0189 5.42944,0.0108 5.39897,0.0659 -0.0305,0.0551 -5.02785,12.1986 -11.10525,26.98552 -6.0774,14.78693 -11.08781,26.92899 -11.13422,26.98238 -0.0464,0.0533 -5.07103,-12.03728 -11.165801,-26.86815 z M 190.23066,131.9053 V 93.685979 h -26.9228 -26.92279 v 38.219321 38.21933 h 26.92279 26.9228 z m -42.15063,0.38349 v -26.10647 l 7.52255,0.0602 c 6.15597,0.0492 7.75324,0.0992 8.79245,0.27545 4.53952,0.76974 7.95709,2.57625 10.68146,5.64624 4.57253,5.15258 5.7267,13.04474 2.85988,19.55574 -2.36988,5.38235 -6.86285,8.96955 -12.85593,10.26419 -1.92947,0.41681 -4.44777,0.63629 -6.00592,0.52345 l -1.24867,-0.0904 v 7.98909 7.98908 h -4.87291 -4.87291 z m 13.97687,0.4077 c 2.85614,-0.2403 4.56643,-0.92923 5.91162,-2.38133 1.26924,-1.37009 1.87282,-2.99976 1.99805,-5.39477 0.11955,-2.28665 -0.57739,-4.67592 -1.77599,-6.08851 -1.54769,-1.82399 -3.7088,-2.47675 -8.20238,-2.47752 h -2.16235 v 8.23692 8.23693 l 1.3705,-0.003 c 0.75378,-0.002 2.04103,-0.0594 2.86055,-0.12836 z"
   id="path301" /></g>
</svg>
