<?xml version="1.0" encoding="UTF-8" standalone="no"?>
<!-- Generator: Adobe Illustrator 16.0.0, SVG Export Plug-In . SVG Version: 6.00 Build 0)  -->

<svg
   version="1.1"
   id="Layer_1"
   x="0px"
   y="0px"
   width="280px"
   height="280px"
   viewBox="0 0 280 280"
   enable-background="new 0 0 280 280"
   xml:space="preserve"
   sodipodi:docname="tvppolonia.svg"
   inkscape:version="1.2.2 (732a01da63, 2022-12-09)"
   xmlns:inkscape="http://www.inkscape.org/namespaces/inkscape"
   xmlns:sodipodi="http://sodipodi.sourceforge.net/DTD/sodipodi-0.dtd"
   xmlns="http://www.w3.org/2000/svg"
   xmlns:svg="http://www.w3.org/2000/svg"><defs
   id="defs425" /><sodipodi:namedview
   id="namedview423"
   pagecolor="#ffffff"
   bordercolor="#000000"
   borderopacity="0.25"
   inkscape:showpageshadow="2"
   inkscape:pageopacity="0.0"
   inkscape:pagecheckerboard="0"
   inkscape:deskcolor="#d1d1d1"
   showgrid="false"
   inkscape:zoom="0.51391513"
   inkscape:cx="286.03945"
   inkscape:cy="46.700318"
   inkscape:window-width="1655"
   inkscape:window-height="1030"
   inkscape:window-x="128"
   inkscape:window-y="0"
   inkscape:window-maximized="0"
   inkscape:current-layer="g420" />
<g
   id="g420">
	<rect
   x="-0.039"
   fill-rule="evenodd"
   clip-rule="evenodd"
   fill="#ED177F"
   width="280.039"
   height="280"
   id="rect394"
   style="fill:#cd3301;fill-opacity:1" />
	
	
	
	
	
	
	
	
	
	
	
	
<path
   style="fill:#ffffff;stroke-width:0.232667"
   d="m 145.14791,225.41438 126.48334,-0.0646 0.0533,-83.61532 0.0533,-83.61531 0.0525,83.74387 0.0524,83.74387 -126.5891,-0.064 -126.589077,-0.0639 z m 37.48672,-28.49202 -9.17389,-10.44279 -0.10544,9.74541 -0.10543,9.74541 h -3.26886 -3.26886 l -0.0541,-18.80226 c -0.0514,-17.84317 -0.0351,-18.80226 0.31927,-18.80226 0.20536,0 4.47213,4.6781 9.48173,10.39579 5.00959,5.71769 9.16025,10.39579 9.22367,10.39579 0.0635,0 0.11532,-4.38933 0.11532,-9.75408 v -9.75408 h 3.3743 3.37431 v 18.86645 c 0,17.80015 -0.0208,18.86594 -0.36907,18.85791 -0.20298,-0.004 -4.49731,-4.70776 -9.54295,-10.45129 z m -100.792821,9.94043 c -6.00815,-1.54169 -10.485845,-6.83247 -12.032088,-14.21696 -0.575385,-2.74793 -0.576874,-6.93831 -0.0032,-9.84927 1.927646,-9.78655 9.768528,-16.00886 17.669931,-14.02239 5.640863,1.41813 9.85306,6.14459 11.645906,13.06773 0.659689,2.54739 0.810882,7.23619 0.327044,10.1425 -0.673298,4.04433 -1.98454,6.97315 -4.422895,9.87901 -2.850816,3.39741 -5.929672,4.99394 -9.930005,5.14916 -1.27591,0.0495 -2.740384,-0.0179 -3.254374,-0.14978 z m 6.069459,-9.10759 c 2.292795,-1.52363 3.869525,-4.48347 4.299027,-8.07017 0.635181,-5.30418 -1.305544,-10.33813 -4.700556,-12.19254 -2.097282,-1.14558 -4.856896,-0.93976 -6.736886,0.50245 -2.477453,1.90056 -4.00698,5.62255 -4.00698,9.75074 0,3.21446 0.800597,5.92149 2.360384,7.98109 1.711811,2.26033 3.132471,2.96495 5.759034,2.85641 1.628465,-0.0673 2.058237,-0.18489 3.025977,-0.82798 z m 53.071802,8.96718 c -0.81194,-0.21716 -2.37321,-0.92223 -3.46948,-1.56684 -1.68294,-0.98957 -2.27387,-1.51684 -3.79609,-3.38715 -2.06168,-2.53315 -3.16456,-4.66702 -3.93087,-7.60555 -1.46778,-5.62838 -1.01525,-11.40539 1.29067,-16.47669 1.09413,-2.40627 3.95252,-5.8243 5.89879,-7.05369 6.13437,-3.8749 13.08107,-2.60598 17.91005,3.27155 1.73481,2.1115 2.70574,3.98041 3.51637,6.76856 1.15891,3.98601 1.30371,8.43378 0.41247,12.66899 -1.28904,6.12561 -5.37069,11.20567 -10.55607,13.13818 -1.64934,0.6147 -5.41513,0.74027 -7.27584,0.24264 z m 5.907,-8.60385 c 2.46521,-1.12264 4.52131,-4.62154 4.957,-8.43546 0.72363,-6.33459 -2.10718,-11.96205 -6.44158,-12.80546 -2.45892,-0.47848 -4.65189,0.39098 -6.42286,2.5465 -1.87454,2.28156 -2.64936,5.15723 -2.48805,9.23425 0.0833,2.10673 0.20053,2.74894 0.77548,4.2498 0.97816,2.55342 2.59224,4.46829 4.55659,5.4057 1.07676,0.51384 3.73096,0.41146 5.06342,-0.19533 z M 44.011933,205.9336 c -0.08008,-0.0974 -0.145516,-8.3115 -0.145516,-18.25352 v -18.07642 l 6.274091,0.11385 c 6.863344,0.12453 7.395237,0.21922 9.726138,1.73132 5.217374,3.38465 6.239936,12.16387 2.011487,17.2696 -2.006533,2.42281 -4.698387,3.67031 -8.533379,3.95468 l -2.090061,0.15498 -0.05623,6.57116 -0.05622,6.57114 -3.492408,0.0701 c -1.920815,0.0385 -3.557881,-0.01 -3.637913,-0.1069 z m 11.8879,-20.91357 c 1.599587,-1.08739 2.187522,-2.7143 1.844215,-5.10329 -0.119131,-0.82898 -0.369251,-1.3853 -0.885972,-1.97055 -0.853444,-0.96663 -1.767873,-1.32037 -3.975943,-1.53802 L 51.2477,176.24706 v 4.82234 4.82234 l 1.87646,-0.13022 c 1.446625,-0.10039 2.082443,-0.27025 2.775673,-0.74149 z m 51.166637,20.91022 c -0.0786,-0.0955 -0.14277,-8.29788 -0.14277,-18.22735 v -18.05361 h 3.69064 3.69065 v 14.2461 14.24608 h 5.80508 5.80508 l -0.0582,3.91446 -0.0583,3.91446 -9.29474,0.0668 c -5.1121,0.0368 -9.35898,-0.0114 -9.43751,-0.1069 z m 95.3268,0.003 c -0.0801,-0.0974 -0.14551,-8.30121 -0.14551,-18.23069 v -18.0536 h 3.69206 3.69206 l -0.0542,18.16056 -0.0542,18.16054 -3.49241,0.0701 c -1.92081,0.0385 -3.55788,-0.01 -3.63791,-0.1069 z m 13.56261,-0.0541 c 0,-0.12742 3.41493,-8.63035 7.58876,-18.89542 4.75715,-11.69975 7.68474,-18.6248 7.84604,-18.55936 0.41701,0.1692 15.15287,37.42971 14.85735,37.56773 -0.14077,0.0657 -1.81814,0.0877 -3.72747,0.0488 l -3.47148,-0.0708 -0.37417,-0.8984 c -0.20579,-0.49412 -0.65268,-1.67809 -0.99308,-2.63104 l -0.61893,-1.73263 h -6.01343 -6.01342 l -0.4744,1.34761 c -0.26092,0.74118 -0.71435,1.92514 -1.00761,2.63103 l -0.53321,1.28343 -3.53248,0.0703 c -2.00288,0.0399 -3.53247,-0.0299 -3.53247,-0.1613 z m 18.76956,-11.71036 c 0,-0.12593 -3.59275,-10.74351 -3.66885,-10.84255 -0.0234,-0.0305 -0.576,1.47111 -1.22788,3.33692 -0.65187,1.86582 -1.52142,4.34535 -1.93233,5.51005 l -0.74712,2.11766 h 3.78808 c 2.08346,0 3.7881,-0.0549 3.7881,-0.12208 z M 72.126204,116.51525 V 77.498962 h 73.074746 73.07476 v 39.016288 39.01631 H 145.20095 72.126204 Z m 47.662026,0 V 81.092561 H 97.644377 75.500507 v 35.422689 35.4227 h 22.14387 22.143853 z M 93.356196,140.986 c -0.07738,-0.0941 -0.140595,-8.87278 -0.140595,-19.50814 v -19.33703 h -5.483239 -5.48325 v -4.748697 -4.748694 h 15.395265 15.395253 v 4.748694 4.748697 h -5.5887 -5.58868 v 19.50815 19.50815 h -4.182724 c -2.300512,0 -4.246007,-0.077 -4.32333,-0.17113 z m 74.042084,-24.53492 0.0534,-35.358519 h -22.14456 -22.1446 v 35.423889 35.42387 l 22.09113,-0.0654 22.09114,-0.0654 z m -31.41837,0.83523 -9.19022,-25.166114 4.55145,0.06913 4.55144,0.06913 4.60146,12.817214 c 2.53081,7.04946 4.60265,12.99817 4.60411,13.21934 0.001,0.22117 0.5151,-1.04173 1.14144,-2.80645 0.62635,-1.76472 2.75592,-7.71342 4.73237,-13.21935 l 3.59357,-10.010754 4.54888,-0.06924 4.54887,-0.06913 -0.29292,0.839246 c -1.19818,3.432952 -17.93634,49.138888 -18.05242,49.294708 -0.0813,0.10911 -4.28342,-11.12631 -9.33803,-24.96768 z m 78.9215,-0.77106 V 81.092561 h -22.03843 -22.03842 v 35.422689 35.4227 h 22.03842 22.03843 z M 180.24449,140.986 c -0.0774,-0.0941 -0.14059,-11.00969 -0.14059,-24.25684 V 92.643439 l 6.37953,0.0033 c 5.49246,0.0033 6.65814,0.073 8.38304,0.50396 5.79735,1.448516 10.06684,6.431659 11.07577,12.927101 0.3986,2.56618 0.39418,4.06813 -0.0192,6.53374 -1.38118,8.23738 -7.4593,13.63929 -15.39135,13.67899 l -2.2029,0.011 v 7.42775 7.42774 h -3.97183 c -2.18451,0 -4.0351,-0.077 -4.11244,-0.17112 z m 12.37221,-23.9644 c 1.96949,-0.34656 3.38746,-1.14159 4.2672,-2.39252 1.77701,-2.52683 1.81493,-7.43564 0.0772,-9.99301 -1.21933,-1.79443 -3.05442,-2.49524 -6.53376,-2.49524 h -2.09856 v 7.57224 7.57224 l 1.42354,-0.005 c 0.78294,-0.003 2.07192,-0.11918 2.8644,-0.25863 z"
   id="path180" /></g>
</svg>
