<?xml version="1.0" encoding="UTF-8" standalone="no"?>
<!-- Generator: Adobe Illustrator 16.0.0, SVG Export Plug-In . SVG Version: 6.00 Build 0)  -->

<svg
   version="1.1"
   id="Layer_1"
   x="0px"
   y="0px"
   width="280px"
   height="280px"
   viewBox="0 0 280 280"
   enable-background="new 0 0 280 280"
   xml:space="preserve"
   sodipodi:docname="tvrepublik.svg"
   inkscape:version="1.2.2 (732a01da63, 2022-12-09)"
   xmlns:inkscape="http://www.inkscape.org/namespaces/inkscape"
   xmlns:sodipodi="http://sodipodi.sourceforge.net/DTD/sodipodi-0.dtd"
   xmlns="http://www.w3.org/2000/svg"
   xmlns:svg="http://www.w3.org/2000/svg"><defs
   id="defs425" /><sodipodi:namedview
   id="namedview423"
   pagecolor="#ffffff"
   bordercolor="#000000"
   borderopacity="0.25"
   inkscape:showpageshadow="2"
   inkscape:pageopacity="0.0"
   inkscape:pagecheckerboard="0"
   inkscape:deskcolor="#d1d1d1"
   showgrid="false"
   inkscape:zoom="0.72678575"
   inkscape:cx="236.65846"
   inkscape:cy="173.36608"
   inkscape:window-width="1655"
   inkscape:window-height="1030"
   inkscape:window-x="128"
   inkscape:window-y="0"
   inkscape:window-maximized="0"
   inkscape:current-layer="g420" />
<g
   id="g420">
	<rect
   x="-0.039"
   fill-rule="evenodd"
   clip-rule="evenodd"
   fill="#ED177F"
   width="280.039"
   height="280"
   id="rect394"
   style="fill:#022f61;fill-opacity:1" />
	
	
	
	
	
	
	
	
	
	
	
	
<path
   style="fill:#ffffff"
   d="m 113.28009,262.45136 c -3.06356,-1.18852 -4,-3.77379 -4,-11.04299 0,-6.58525 0.19349,-7.30887 1.95431,-7.30887 1.71337,0 1.99077,0.81932 2.25,6.64561 0.22812,5.12692 0.70899,6.89798 2.10426,7.75 2.83086,1.72865 4.69143,-1.67676 4.69143,-8.58674 0,-5.05802 0.24775,-5.80887 1.91667,-5.80887 1.05417,0 2.07036,0.4611 2.25822,1.02466 0.69568,2.08704 -0.72589,14.92634 -1.76804,15.96849 -1.30092,1.30092 -7.31626,2.16977 -9.40685,1.35871 z m -78.788932,-9.10186 0.288933,-8.75 5.632183,-0.29639 c 4.154062,-0.2186 6.056766,0.1282 7.25,1.32143 2.086523,2.08652 2.063129,5.32541 -0.05537,7.66633 -1.570804,1.73572 -1.540209,2.02872 0.5,4.78825 2.780077,3.76026 2.740532,4.02038 -0.611205,4.02038 -2.033294,0 -3.262435,-0.80926 -4.556537,-3 -0.974679,-1.65 -2.196702,-3 -2.715607,-3 -0.518905,0 -0.943464,1.35 -0.943464,3 0,2.5456 -0.384563,3 -2.538933,3 h -2.538933 z m 10.113043,-2.65223 c 0.710447,-1.8514 -0.148841,-2.59777 -2.990777,-2.59777 -2.200178,0 -3.133452,1.86655 -1.666666,3.33333 1.175123,1.17513 4.101601,0.71294 4.657443,-0.73556 z m 15.67589,2.35654 v -9.04569 l 6.739662,0.29569 c 5.483,0.24056 6.801875,0.62199 7.073324,2.04569 0.278408,1.4602 -0.423672,1.75 -4.239662,1.75 -3.313282,0 -4.573324,0.39665 -4.573324,1.43963 0,0.94174 1.296942,1.54698 3.75,1.75 2.528727,0.20929 3.75,0.79888 3.75,1.81037 0,1.01149 -1.221273,1.60108 -3.75,1.81037 -2.937756,0.24314 -3.75,0.73048 -3.75,2.25 0,1.63215 0.71335,1.93963 4.5,1.93963 3.333333,0 4.5,0.38889 4.5,1.5 0,1.19048 -1.444444,1.5 -7,1.5 h -7 z m 25,0.0457 v -9 h 5.345017 c 6.01756,0 8.65498,1.89124 8.65498,6.2063 0,3.11053 -1.90714,4.83129 -5.66696,5.11313 -2.40841,0.18054 -2.88,0.69712 -3.14639,3.44647 -0.25918,2.67488 -0.73469,3.2341 -2.75,3.2341 -2.401702,0 -2.436647,-0.12907 -2.436647,-9 z m 9.732437,-3.3177 c -0.214,-0.65027 -1.36634,-1.3261 -2.56076,-1.50185 -1.58002,-0.23249 -2.17168,0.19888 -2.17168,1.58333 0,1.04659 0.28417,2.18705 0.63149,2.53437 0.98112,0.98113 4.53804,-1.28771 4.10095,-2.61585 z m 40.921412,10.61154 c -0.27981,-0.98661 -0.4289,-4.94384 -0.3313,-8.79384 l 0.17745,-7 5.35932,-0.30605 c 3.97371,-0.22692 5.84815,0.13632 7.25,1.40499 2.07534,1.87815 2.49642,4.90866 0.82554,5.94132 -0.69582,0.43004 -0.4592,1.32785 0.68239,2.5893 1.36777,1.51136 1.54047,2.52204 0.7947,4.65072 -0.89167,2.54515 -1.37956,2.73858 -7.60109,3.01356 -5.68686,0.25134 -6.72183,0.0344 -7.15701,-1.5 z m 9.84615,-3.29384 c 0,-0.89299 -1.11285,-1.62805 -2.75,-1.81642 -2.23933,-0.25767 -2.75,0.0796 -2.75,1.81642 0,1.73678 0.51067,2.07409 2.75,1.81642 1.63715,-0.18837 2.75,-0.92343 2.75,-1.81642 z m -0.68816,-7.26148 c 0.24799,-1.2877 -0.33248,-1.73852 -2.23852,-1.73852 -2.44469,0 -3.44336,1.79662 -1.87208,3.3679 1.20411,1.20412 3.76003,0.19099 4.1106,-1.62938 z m 16.18816,3.26148 c 0,-8.93333 0.0185,-9 2.5,-9 2.42857,0 2.5,0.2 2.5,7 v 7 h 4 c 3.33333,0 4,0.33333 4,2 0,1.79487 -0.66667,2 -6.5,2 h -6.5 z m 23,0 c 0,-8.93333 0.0185,-9 2.5,-9 2.48148,0 2.5,0.0667 2.5,9 0,8.93333 -0.0185,9 -2.5,9 -2.48148,0 -2.5,-0.0667 -2.5,-9 z m 16,0 c 0,-8.93333 0.0185,-9 2.5,-9 2.21555,0 2.50427,0.42668 2.53755,3.75 l 0.0375,3.75 3.21246,-3.75004 c 2.32612,-2.71539 4.00394,-3.75004 6.08114,-3.75 l 2.86869,4e-5 -2.78591,3.65251 -2.78591,3.65252 2.66722,4.74486 c 3.26371,5.806 3.26838,5.95011 0.1929,5.95011 -1.78583,0 -2.93424,-0.90433 -4.12718,-3.25 -2.17367,-4.27408 -2.11373,-4.23122 -3.87433,-2.77006 -0.8383,0.69572 -1.52417,2.33485 -1.52417,3.6425 0,1.8694 -0.53433,2.37756 -2.5,2.37756 -2.48148,0 -2.5,-0.0667 -2.5,-9 z m 26.54986,6.65735 c 0.32339,-1.28846 1.63199,-5.22596 2.90802,-8.75 2.07596,-5.73326 2.60565,-6.40735 5.03479,-6.40735 2.48212,0 2.96292,0.68073 5.61104,7.94419 1.59296,4.3693 2.89629,8.3068 2.89629,8.75 0,1.45792 -4.77292,0.83995 -5.36163,-0.69419 -0.31658,-0.825 -1.72885,-1.5 -3.13837,-1.5 -1.40952,0 -2.82179,0.675 -3.13837,1.5 -0.31659,0.825 -1.66104,1.5 -2.98767,1.5 -2.03032,0 -2.31901,-0.37076 -1.8241,-2.34265 z m 9.26656,-6.18844 c -0.17403,-1.3921 -0.76642,-2.53109 -1.31642,-2.53109 -0.55,0 -1.14239,1.13899 -1.31642,2.53109 -0.22552,1.8039 0.15269,2.53109 1.31642,2.53109 1.16373,0 1.54194,-0.72719 1.31642,-2.53109 z M 38.595463,228.11313 c -1.201546,-0.49545 -2.664046,-1.79662 -3.25,-2.89148 -0.731893,-1.36756 -1.065372,-31.06274 -1.065372,-94.86785 0,-92.086406 0.01736,-92.895806 2.038955,-95.065736 l 2.038955,-2.18856 H 138.8645 239.371 l 2.45454,2.45455 2.45455,2.45454 -0.0137,92.295446 c -0.008,50.76251 -0.28981,93.32636 -0.62733,94.58635 -0.33752,1.25999 -0.97381,2.15999 -1.41399,2 -1.17656,-0.42764 -53.94853,-51.99722 -53.92519,-52.69651 0.0109,-0.32691 2.33497,-1.94438 5.16455,-3.59438 2.82959,-1.65 8.1664,-6.02958 11.85957,-9.7324 15.49944,-15.53993 21.55956,-38.35805 15.9806,-60.17159 -2.87796,-11.252686 -7.33231,-18.963376 -15.99091,-27.681016 -8.67765,-8.73681 -17.21046,-13.86949 -28.01355,-16.85079 -7.13885,-1.97008 -9.99126,-2.0642 -62.55887,-2.0642 -45.98668,0 -55.399406,0.23428 -57.020099,1.41919 -1.888543,1.38074 -1.954676,3.74443 -2.44113,87.249996 l -0.5,85.83081 -7,0.20722 c -3.85,0.11397 -7.983083,-0.19815 -9.184628,-0.69359 z M 105.28009,208.18497 V 187.07362 L 91.704738,173.33656 C 84.238288,165.78118 73.333463,154.762 67.471789,148.8495 l -10.65759,-10.75 h 23.501536 23.501535 l 44.68744,44.71064 c 24.57809,24.59085 44.59473,44.78556 44.48141,44.87713 -0.11332,0.0916 -19.89353,0.49107 -43.95603,0.88777 l -43.75,0.72128 z m 0,-91.64026 V 95.989914 l 29.82993,0.3048 29.82993,0.30479 3.70942,2.83091 c 11.20776,8.553376 12.61081,21.952156 3.27619,31.286776 -2.43953,2.43953 -5.80053,4.6097 -8.14877,5.26161 -2.47494,0.68708 -14.37223,1.11167 -31.2467,1.11512 l -27.25,0.006 z"
   id="path514" /></g>
</svg>
