<?xml version="1.0" encoding="UTF-8" standalone="no"?>
<!-- Generator: Adobe Illustrator 16.0.0, SVG Export Plug-In . SVG Version: 6.00 Build 0)  -->

<svg
   version="1.1"
   id="Layer_1"
   x="0px"
   y="0px"
   width="280px"
   height="280px"
   viewBox="0 0 280 280"
   enable-background="new 0 0 280 280"
   xml:space="preserve"
   sodipodi:docname="tvtrwam.svg"
   inkscape:version="1.2.2 (732a01da63, 2022-12-09)"
   xmlns:inkscape="http://www.inkscape.org/namespaces/inkscape"
   xmlns:sodipodi="http://sodipodi.sourceforge.net/DTD/sodipodi-0.dtd"
   xmlns="http://www.w3.org/2000/svg"
   xmlns:svg="http://www.w3.org/2000/svg"><defs
   id="defs425" /><sodipodi:namedview
   id="namedview423"
   pagecolor="#ffffff"
   bordercolor="#000000"
   borderopacity="0.25"
   inkscape:showpageshadow="2"
   inkscape:pageopacity="0.0"
   inkscape:pagecheckerboard="0"
   inkscape:deskcolor="#d1d1d1"
   showgrid="false"
   inkscape:zoom="0.51391513"
   inkscape:cx="356.08992"
   inkscape:cy="155.66773"
   inkscape:window-width="1655"
   inkscape:window-height="1030"
   inkscape:window-x="128"
   inkscape:window-y="0"
   inkscape:window-maximized="0"
   inkscape:current-layer="g420" />
<g
   id="g420">
	<rect
   x="-0.039"
   fill-rule="evenodd"
   clip-rule="evenodd"
   fill="#ED177F"
   width="280.039"
   height="280"
   id="rect394"
   style="fill:#ec2026;fill-opacity:1" />
	
	
	
	
	
	
	
	
	
	
	
	
<path
   style="fill:#ffffff;stroke-width:0.317741"
   d="m 150.43335,203.50482 c -0.20798,-0.39781 -0.69201,-0.86972 -1.07565,-1.04867 -0.59863,-0.27924 -0.69757,-0.23841 -0.69757,0.28789 0,0.36472 -0.31036,0.71383 -0.76577,0.86137 -0.90899,0.2945 -1.61663,0.11386 -1.61663,-0.41268 0,-0.38978 -1.18168,-0.80218 -1.50105,-0.52385 -0.0985,0.0858 -0.78596,0.20373 -1.5277,0.26197 l -1.34861,0.10588 -0.36179,-1.55494 c -0.7496,-3.22144 -1.7238,-8.71342 -1.72557,-9.72736 0,-0.57919 -0.18001,-1.2084 -0.39783,-1.39824 -0.23991,-0.20909 -0.44657,-1.72366 -0.5242,-3.84149 -0.0705,-1.92296 -0.26999,-4.11593 -0.44336,-4.87325 -0.17334,-0.75732 -0.47751,-3.49382 -0.67596,-6.0811 -0.19842,-2.58729 -0.44221,-5.0582 -0.54172,-5.49091 -0.0995,-0.43272 -0.23977,-1.34681 -0.31166,-2.03132 -0.0719,-0.68451 -0.23919,-1.66534 -0.37179,-2.17964 -0.13259,-0.51429 -0.28051,-1.80274 -0.3287,-2.86323 -0.0483,-1.06048 -0.19679,-3.93047 -0.33013,-6.37774 -0.13335,-2.44728 -0.246,-4.81668 -0.25036,-5.26535 -0.004,-0.44867 -0.12205,-0.81576 -0.26159,-0.81576 -0.13954,0 -0.24658,-0.16686 -0.23787,-0.3708 0.0476,-1.11526 -0.14175,-1.70567 -0.54682,-1.70567 -0.28474,0 -0.47209,0.38791 -0.5,1.03529 -0.0245,0.5694 -0.26431,1.40546 -0.53274,1.85789 -0.26843,0.45245 -0.59863,1.4883 -0.73379,2.30191 -0.13514,0.81361 -0.4841,1.83873 -0.77546,2.27803 -0.48013,0.72391 -0.56896,0.75201 -0.94824,0.29991 -0.23017,-0.27436 -0.34647,-0.60042 -0.25842,-0.72458 0.0881,-0.12416 -0.34671,-0.22247 -0.96613,-0.21845 -0.94463,0.006 -1.22221,0.17548 -1.7218,1.05043 -0.32758,0.57372 -0.5956,1.23788 -0.5956,1.4759 0,0.23802 -0.19287,0.43277 -0.42863,0.43277 -0.75896,0 -1.17827,0.97026 -0.86529,2.00231 0.16078,0.53024 0.41985,0.96408 0.57569,0.96408 0.28004,0 -0.03,1.54524 -0.71448,3.55967 -0.40637,1.19616 -1.19209,2.07648 -1.85331,2.07648 -0.7156,0 -0.53648,0.54091 0.21421,0.6468 0.52322,0.0738 0.59282,0.19329 0.31442,0.53975 -0.2217,0.27592 -0.4155,0.32401 -0.51008,0.1266 -0.17313,-0.36124 -2.08838,-0.19635 -2.37246,0.20424 -0.10235,0.14434 -0.0286,0.26244 0.16367,0.26244 0.19236,0 0.27578,0.16797 0.18542,0.37327 -0.12143,0.27582 0.24766,0.34471 1.41381,0.26388 1.05538,-0.0732 1.67018,0.0204 1.85596,0.28237 0.2231,0.31461 0.40447,0.29186 0.92098,-0.11556 0.78078,-0.61586 1.30617,-0.64689 1.55064,-0.0916 0.11105,0.25226 -0.0927,0.47859 -0.51831,0.57558 -0.46706,0.10646 -0.63273,0.31563 -0.49602,0.62618 0.16384,0.37213 0.0353,0.42913 -0.63648,0.28217 -0.63416,-0.13872 -0.8418,-0.0665 -0.8418,0.29297 0,0.68603 -1.05109,0.58934 -1.26275,-0.11615 -0.0979,-0.32631 -0.39891,-0.59329 -0.6689,-0.59329 -0.27003,0 -0.39627,0.13349 -0.28058,0.29665 0.11568,0.16315 0.0354,0.29664 -0.17845,0.29664 -0.21384,0 -0.32414,0.16686 -0.24514,0.37079 0.079,0.20394 -0.0663,0.81052 -0.32279,1.34794 -0.45602,0.95523 -0.33653,1.70431 0.22371,1.40252 0.15465,-0.0833 0.36533,0.0397 0.46818,0.27331 0.12024,0.27307 -0.0688,0.45787 -0.52944,0.51742 -0.69781,0.0902 -0.69383,0.11159 0.15244,0.81879 0.78419,0.6553 0.96637,1.73012 0.22564,1.33112 -0.16755,-0.0903 -0.3238,0.044 -0.34721,0.29834 -0.0783,0.85128 -0.12624,1.00509 -0.38289,1.22878 -0.14039,0.12237 -0.25526,0.80093 -0.25526,1.50792 0,1.09172 0.10357,1.28544 0.68719,1.28544 0.57376,0 0.64972,-0.13 0.46032,-0.78775 -0.16578,-0.57565 -0.0626,-0.89245 0.38322,-1.17657 0.33555,-0.21386 0.64816,-0.81049 0.69467,-1.32587 0.0465,-0.51538 0.26711,-1.03537 0.49021,-1.15555 0.22309,-0.12017 0.39255,-0.30369 0.37655,-0.40781 -0.10836,-0.70588 0.0146,-1.37587 0.25233,-1.37587 0.15479,0 0.2103,0.42221 0.12341,0.93825 -0.10735,0.63737 0.0146,1.04836 0.38081,1.28163 0.48403,0.3085 0.45422,0.50248 -0.29358,1.90928 -0.45779,0.86124 -0.83238,1.80532 -0.83238,2.09797 0,0.60355 -0.77081,0.95728 -1.53154,0.70284 -0.28079,-0.0939 -0.73766,-0.0948 -1.01528,-0.002 -0.71513,0.23918 -0.24597,1.14057 0.48795,0.93753 0.33847,-0.0936 0.84099,0.0868 1.19722,0.42993 0.55759,0.53698 0.563,0.60834 0.0591,0.77688 -0.30518,0.10207 -0.48022,0.29091 -0.38894,0.41963 0.0913,0.12872 -0.0627,0.71114 -0.34228,1.29427 -0.27956,0.58312 -0.50827,1.43827 -0.50827,1.90034 0,0.46206 -0.19144,1.01412 -0.42543,1.22681 -0.34174,0.31062 -0.31479,0.44971 0.13709,0.70706 0.50221,0.28602 0.50874,0.39188 0.0609,0.98762 -0.37438,0.49801 -0.41073,0.81525 -0.14332,1.25077 0.45548,0.74177 -0.27415,1.04941 -1.51422,0.63848 -0.7491,-0.24823 -0.9,-0.1882 -1.18824,0.47259 -0.18161,0.41631 -0.33021,0.88173 -0.33021,1.03426 0,0.15253 -0.42869,0.27733 -0.95265,0.27733 -0.78262,0 -1.03076,-0.18823 -1.3902,-1.05458 -0.39487,-0.95182 -1.37049,-1.3219 -1.13174,-0.42931 0.0672,0.25121 -0.0968,0.29625 -0.51052,0.1402 -0.33524,-0.12646 -1.09686,-0.28986 -1.69246,-0.36312 -1.11942,-0.1377 -1.45956,-0.52965 -1.67241,-1.92702 -0.0867,-0.56892 0.0273,-0.81576 0.37577,-0.81576 0.31707,0 0.4758,-0.25563 0.43374,-0.69845 -0.0402,-0.4232 -0.2734,-0.68623 -0.5918,-0.66744 -0.38516,0.0227 -0.52545,-0.26109 -0.52545,-1.0631 0,-0.60176 -0.19144,-1.26253 -0.42543,-1.46836 -0.49755,-0.43783 -0.60019,-5.00197 -0.11251,-5.00197 0.19021,0 0.19001,-0.38792 0,-0.98932 -0.17239,-0.54412 -0.28525,-2.24609 -0.25088,-3.78215 0.0344,-1.53605 -0.064,-5.39584 -0.21873,-8.5773 -0.3834,-7.88317 -0.40991,-8.83968 -0.41951,-15.1286 -0.0113,-7.41124 -0.0552,-8.34157 -0.41199,-8.72107 -0.17347,-0.18453 -0.23436,-3.29226 -0.14008,-7.14913 0.0917,-3.75249 0.1601,-7.02294 0.15196,-7.26766 -0.008,-0.24473 -0.10458,-4.60026 -0.21424,-9.67896 l -0.19938,-9.234 2.65219,-0.32361 c 3.87686,-0.47302 7.19272,-0.50747 7.68319,-0.0798 0.25539,0.2227 0.44684,1.46581 0.49874,3.23868 0.0463,1.58249 0.10619,3.27772 0.13297,3.76717 0.0269,0.48946 0.014,3.69316 -0.0286,7.11935 -0.0425,3.42619 0.0351,8.29849 0.17259,10.82734 0.1375,2.52885 0.26162,9.57032 0.27588,15.64771 0.0143,6.0774 0.14478,11.04982 0.29008,11.04982 0.38002,0 1.46929,-0.99718 1.72588,-1.58002 0.12021,-0.27305 0.45984,-0.49646 0.75471,-0.49646 0.31635,0 0.4951,-0.20605 0.43612,-0.50266 -0.055,-0.27646 0.20628,-0.64355 0.58065,-0.81575 0.90025,-0.41409 1.07481,-3.15078 0.26935,-4.22222 -0.4223,-0.56174 -0.45068,-0.79712 -0.1296,-1.07482 0.32037,-0.2771 0.36107,-0.241 0.18436,0.16355 -0.13565,0.31058 -0.0673,0.51911 0.17008,0.51911 0.21825,0 0.30218,0.1335 0.1865,0.29665 -0.11568,0.16315 -0.0571,0.29664 0.13001,0.29664 0.59857,0 0.79365,-0.60437 0.34661,-1.07385 -0.35154,-0.36919 -0.34712,-0.50074 0.0234,-0.70038 0.50823,-0.27378 0.80957,-1.78545 0.35589,-1.78545 -0.1588,0 -0.35126,0.16342 -0.42763,0.36315 -0.0764,0.19974 -0.23113,0.0557 -0.34389,-0.32007 -0.14019,-0.46725 -0.0745,-0.63957 0.20785,-0.54514 0.28929,0.0967 0.37172,-0.16891 0.27544,-0.88776 -0.0756,-0.56421 0.12017,-1.94957 0.43502,-3.07858 0.31483,-1.12901 0.48506,-2.17594 0.3783,-2.32651 -0.10677,-0.15056 -0.0421,-0.31853 0.14366,-0.37325 0.18579,-0.0547 0.43499,-0.76694 0.55377,-1.5827 0.11878,-0.81575 0.39541,-1.61668 0.61473,-1.77983 0.21931,-0.16315 0.39575,-0.83677 0.39204,-1.49694 -0.004,-0.66017 0.17483,-1.72807 0.3967,-2.37312 0.98057,-2.85071 2.45351,-10.20521 2.61129,-13.03838 0.0364,-0.6526 0.2559,-1.48764 0.48792,-1.85563 0.23201,-0.368 0.49285,-1.50264 0.57963,-2.52144 0.0868,-1.0188 0.23994,-2.85351 0.34032,-4.07715 0.29732,-3.62491 0.54947,-5.16917 0.90673,-5.55283 0.24393,-0.26192 1.68821,-0.33718 5.23769,-0.27291 2.69548,0.0488 4.99137,0.1676 5.10195,0.26399 0.41168,0.35881 0.75866,2.39678 0.78514,4.6117 0.0316,2.64862 0.24035,5.19468 0.74075,9.03905 1.02522,7.87601 1.3788,12.65314 1.45423,19.64678 0.03,2.77357 0.1604,5.11274 0.29004,5.19814 0.1296,0.0854 0.33452,2.8219 0.45534,6.08111 0.12079,3.2592 0.28889,6.59326 0.37353,7.40902 0.0846,0.81576 0.14944,1.78354 0.14407,2.15063 -0.0133,0.89847 0.87553,0.85599 1.13766,-0.0544 0.11433,-0.397 0.51603,-0.80708 0.89269,-0.91128 0.37669,-0.10419 0.60087,-0.30789 0.49819,-0.45266 -0.10264,-0.14476 -0.0356,-0.50225 0.14914,-0.7944 0.18464,-0.29215 0.43176,-1.43222 0.54911,-2.5335 0.11738,-1.10127 0.32806,-2.00231 0.46821,-2.00231 0.38088,0 1.09315,-2.96618 0.80781,-3.36397 -0.37796,-0.5266 -0.41175,-1.08562 -0.0658,-1.08562 0.17061,0 0.31022,-0.33372 0.31022,-0.7416 0,-0.40788 0.15315,-0.7416 0.34035,-0.7416 0.18718,0 0.34398,-0.43384 0.34847,-0.96408 0.004,-0.53024 0.14148,-1.46466 0.30451,-2.07647 0.1751,-0.65728 0.17013,-1.1124 -0.0123,-1.1124 -0.46553,0 -0.13893,-2.37236 0.49894,-3.6243 0.30904,-0.60658 0.56191,-1.36164 0.56191,-1.67791 0,-0.4304 0.17249,-0.53572 0.68576,-0.41873 0.52552,0.11978 0.63668,0.0448 0.47573,-0.3207 -0.11551,-0.26235 -0.0394,-0.90364 0.16918,-1.42509 0.29277,-0.73199 0.2813,-1.00457 -0.0503,-1.1959 -0.33493,-0.19326 -0.3108,-0.32821 0.10959,-0.61298 0.62474,-0.42316 1.09962,-2.49723 0.6297,-2.75035 -0.53052,-0.28578 -0.35824,-0.97032 0.39895,-1.58517 0.3943,-0.32017 0.61497,-0.72582 0.49044,-0.90148 -0.12456,-0.17564 -0.10258,-0.31935 0.0489,-0.31935 0.15142,0 0.27534,-0.70081 0.27534,-1.55736 0,-1.51959 0.61442,-4.32662 1.93169,-8.82502 0.35831,-1.22363 0.69515,-2.42502 0.74855,-2.66975 0.0534,-0.24473 0.22714,-0.91217 0.38612,-1.4832 0.15901,-0.57102 0.25063,-1.33858 0.20362,-1.70567 -0.047,-0.36709 0.0404,-0.66771 0.19417,-0.66804 0.1538,-2.9e-4 0.31873,-0.47764 0.36655,-1.06071 0.0478,-0.58306 0.23729,-1.30501 0.42108,-1.60434 0.18378,-0.29932 0.3935,-1.26786 0.46599,-2.15229 0.0725,-0.88444 0.31931,-1.91343 0.5485,-2.28666 0.36172,-0.58907 0.61242,-0.65934 1.90068,-0.53279 0.93343,0.0917 1.53128,0.0222 1.61139,-0.1872 0.13832,-0.36158 4.70151,-0.28654 5.00557,0.0823 0.41549,0.50402 5.55382,0.60725 10.57372,0.21242 l 3.2563,-0.25612 0.60058,2.63226 c 0.88149,3.86362 1.6995,6.76465 1.95507,6.93355 0.12344,0.0816 0.33153,0.81575 0.46238,1.63151 0.1309,0.81576 0.61619,2.61784 1.07842,4.00463 0.46222,1.38679 0.87628,2.65492 0.92008,2.81807 0.0438,0.16315 0.27925,0.80951 0.52325,1.43635 0.33421,0.85866 0.34711,1.2238 0.0523,1.48071 -0.54251,0.47284 -1.10915,-0.32628 -0.86706,-1.22277 0.10084,-0.37336 -0.0836,-1.1691 -0.40981,-1.76829 -0.53247,-0.97797 -0.6118,-1.02325 -0.77554,-0.44246 -0.12304,0.43645 -0.32513,0.56948 -0.62099,0.4088 -0.32176,-0.17472 -0.35008,-0.44123 -0.10629,-1.00008 0.42941,-0.9844 -0.53638,-1.87487 -1.68794,-1.55632 -0.5406,0.14955 -0.62881,0.27278 -0.3159,0.44134 0.2428,0.1308 0.35164,0.50865 0.24699,0.85748 -0.10429,0.34763 -0.0255,0.62364 0.1781,0.62364 0.20087,0 0.26921,0.0837 0.1519,0.18593 -0.34923,0.30436 0.74957,1.88174 1.20866,1.73514 0.58284,-0.18612 1.13885,0.18352 1.40803,0.93604 0.15356,0.4293 0.059,0.68822 -0.29447,0.80644 -0.74116,0.2479 -0.64379,0.68878 0.19427,0.8798 0.40985,0.0934 0.61582,0.30272 0.48268,0.49048 -0.15625,0.22038 0.17351,0.30372 1.00793,0.25474 1.22826,-0.0721 1.86188,0.32635 1.87338,1.17807 0.004,0.21204 0.24709,0.7932 0.54272,1.29146 0.29562,0.49826 0.58076,1.19244 0.63364,1.54262 0.22078,1.46206 0.62882,2.21379 1.39575,2.57154 0.44732,0.20866 0.73947,0.48351 0.64921,0.61081 -0.0903,0.12729 -0.0228,0.30753 0.14982,0.40054 0.17269,0.093 0.23487,0.43269 0.13821,0.75485 -0.0967,0.32216 0.37717,1.73699 1.05299,3.14407 0.67579,1.40708 1.22871,2.74941 1.22871,2.98295 0,0.23354 0.22973,0.50145 0.51052,0.59536 0.28078,0.0939 0.51051,0.36202 0.51051,0.59579 0,0.23377 0.30631,0.94835 0.68068,1.58796 0.37438,0.63961 0.68069,1.36847 0.68069,1.6197 0,0.25123 0.28552,0.70562 0.63447,1.00978 0.34895,0.30415 0.91239,1.32311 1.25209,2.26436 0.33966,0.94125 0.97154,2.01986 1.40416,2.39692 0.46045,0.40133 0.70233,0.87686 0.58338,1.14699 -0.11174,0.25378 -0.044,0.46143 0.15067,0.46143 0.19461,0 0.4627,-0.30035 0.59577,-0.66744 0.13303,-0.36709 0.52188,-0.83919 0.86403,-1.0491 0.34215,-0.20991 0.78555,-0.91072 0.98532,-1.55735 0.19975,-0.64664 0.56623,-1.1757 0.81438,-1.1757 0.24815,0 0.71411,-0.60012 1.03549,-1.33359 0.32139,-0.73348 0.83994,-1.4636 1.15234,-1.6225 0.31244,-0.1589 0.41488,-0.295 0.22769,-0.30246 -0.18719,-0.007 -0.16469,-0.11164 0.05,-0.2315 0.21472,-0.11987 0.44445,-0.55166 0.51051,-0.95954 0.0661,-0.40788 0.45858,-1.03057 0.87221,-1.38375 0.41358,-0.35319 0.85446,-0.99804 0.97971,-1.433 0.12528,-0.43496 0.42393,-0.85646 0.66373,-0.93666 0.23981,-0.0802 0.5255,-0.45649 0.63481,-0.83619 0.24005,-0.83358 2.69035,-4.68209 3.81723,-5.99546 0.44561,-0.51936 0.81022,-1.07687 0.81022,-1.23893 0,-0.52579 2.71495,-4.98982 3.4956,-5.74762 0.80461,-0.78105 2.6041,-3.56576 4.36367,-6.75281 0.58553,-1.06048 1.20088,-1.97265 1.36744,-2.02704 0.1666,-0.0544 0.3029,-0.40078 0.3029,-0.76978 0,-0.36899 0.30145,-0.90866 0.66987,-1.19926 0.77428,-0.61075 3.7546,-5.71187 3.7546,-6.42641 0,-0.26429 0.2199,-0.63958 0.48863,-0.83398 0.26877,-0.1944 0.5921,-0.77807 0.71857,-1.29704 0.12647,-0.51897 0.42682,-1.14381 0.66745,-1.38854 0.24062,-0.24472 0.49373,-0.71193 0.56248,-1.03824 0.11967,-0.56813 0.38748,-0.59272 6.31817,-0.58017 5.78485,0.0123 7.23809,0.16579 6.34577,0.67046 -0.44159,0.24975 -0.85273,1.67489 -0.81689,2.83153 0.0146,0.46495 -0.2071,1.25301 -0.49228,1.75126 -0.28516,0.49825 -0.52027,1.45272 -0.52249,2.12104 -0.004,0.66833 -0.40249,2.88374 -0.88962,4.92314 -0.4871,2.0394 -0.96402,4.10845 -1.0598,4.59791 -0.0958,0.48945 -0.32162,1.05131 -0.50187,1.24856 -0.18021,0.19726 -0.23487,0.73121 -0.12143,1.18656 0.11344,0.45535 -0.0362,1.62883 -0.33245,2.60774 -0.29627,0.97891 -0.61384,2.71425 -0.7057,3.85632 -0.17259,2.14551 -0.38227,3.26087 -1.5615,8.3059 -0.38135,1.63151 -0.72183,3.64479 -0.75665,4.47394 -0.0348,0.82916 -0.27009,1.94277 -0.52287,2.47467 -0.39034,0.82135 -0.38731,1.00702 0.0201,1.23182 0.27207,0.15012 0.31298,0.26667 0.0945,0.26924 -0.23664,0.003 -0.4775,0.97091 -0.62467,2.5107 -0.15083,1.57821 -0.41777,2.6351 -0.72094,2.85439 -0.34555,0.24996 -0.48142,0.25427 -0.48142,0.0153 0,-0.18312 -0.13192,-0.33296 -0.29314,-0.33296 -0.5873,0 0.0395,1.43376 0.69178,1.58243 0.6148,0.14014 0.62933,0.21121 0.17242,0.84267 -0.27442,0.37929 -0.60363,1.46288 -0.7315,2.408 -0.20553,1.519 -0.30845,1.69738 -0.8869,1.53736 -0.58042,-0.16055 -0.65438,-0.0279 -0.65438,1.17385 0,1.15711 0.0993,1.35487 0.68069,1.35487 1.04853,0 0.80573,0.49732 -0.34035,0.6971 -1.02762,0.17914 -1.392,0.90282 -0.59559,1.18292 0.34034,0.11969 0.34034,0.1543 0,0.17304 -0.23399,0.0129 -0.42544,0.28251 -0.42544,0.59918 0,0.31668 -0.14736,0.65516 -0.3275,0.7522 -0.20482,0.11033 -0.18131,0.4561 0.0628,0.92304 0.31731,0.60699 0.27949,0.91014 -0.20223,1.62092 -0.32591,0.48086 -0.43553,0.8743 -0.24364,0.8743 0.43601,0 0.0551,0.93619 -0.54323,1.33488 -0.36488,0.24316 -0.35722,0.44328 0.0424,1.11003 0.41028,0.68449 0.41443,0.87711 0.0262,1.21549 -0.33397,0.2911 -0.40909,0.90425 -0.27214,2.22089 0.14489,1.39248 0.0786,1.85567 -0.28282,1.97618 -0.34228,0.11413 -0.44071,0.59401 -0.35814,1.74567 0.0627,0.87355 -0.0559,2.10705 -0.26339,2.74111 -0.20755,0.63406 -0.46828,2.48772 -0.57944,4.11923 -0.19661,2.88561 -0.78976,4.52654 -1.49826,4.1449 -0.17895,-0.0964 -0.32537,0.0217 -0.32537,0.26247 0,0.24075 0.17804,0.48948 0.39568,0.5527 0.5776,0.16781 0.64965,1.12104 0.0847,1.12104 -0.26423,0 -0.4421,-0.10012 -0.3953,-0.22248 0.11555,-0.30213 -0.46672,-0.39936 -1.1912,-0.19894 -0.69822,0.19314 -0.75158,0.46345 -0.18849,0.95425 0.31598,0.27539 0.28603,0.43816 -0.13371,0.72678 -0.32398,0.22279 -0.60364,0.99631 -0.69751,1.92926 -0.13443,1.33629 -0.0723,1.55736 0.43765,1.55736 0.32687,0 0.6862,0.20869 0.79848,0.46376 0.11232,0.25507 0.34593,0.3874 0.51919,0.29408 0.44167,-0.23792 0.19856,2.11922 -0.26924,2.61051 -0.20931,0.21979 -0.4141,0.75322 -0.45514,1.18539 -0.041,0.43217 -0.19437,0.78576 -0.34072,0.78576 -0.2736,0 -0.39071,-0.64234 -0.28392,-1.55735 0.0402,-0.3437 -0.17667,-0.51912 -0.64147,-0.51912 -0.38615,0 -0.7021,0.19124 -0.7021,0.42497 0,0.68754 -1.30215,0.85368 -2.57259,0.32823 -0.64413,-0.26642 -1.17118,-0.58611 -1.17118,-0.71042 0,-0.12432 -0.20642,-0.47208 -0.45872,-0.77282 -0.44204,-0.52688 -0.4854,-0.52355 -1.1912,0.0916 -0.59148,0.5155 -0.73249,0.54729 -0.73249,0.16508 0,-0.26033 -0.31077,-0.85371 -0.69059,-1.31862 l -0.69059,-0.8453 0.69059,-1.78673 c 0.37982,-0.9827 0.69059,-2.2632 0.69059,-2.84555 0,-0.97329 -0.0741,-1.05193 -0.91753,-0.97344 -0.89663,0.0834 -0.91563,0.0516 -0.83381,-1.39781 0.046,-0.81576 0.24314,-1.92253 0.43802,-2.4595 0.19489,-0.53698 0.27007,-1.16777 0.16704,-1.40177 -0.10305,-0.23401 0.0351,-0.88937 0.30689,-1.45637 0.2718,-0.56701 0.49384,-1.33783 0.49336,-1.71295 -3.4e-4,-0.37512 0.14768,-1.74993 0.32915,-3.05514 0.18147,-1.30522 0.42046,-3.30753 0.53107,-4.44959 0.11064,-1.14206 0.39752,-2.67717 0.63746,-3.41135 0.23998,-0.73419 0.33307,-1.6686 0.2069,-2.07648 -0.1262,-0.40787 -0.12113,-0.87508 0.0113,-1.03824 0.39725,-0.48971 0.60074,-1.92815 0.27278,-1.92815 -0.16782,0 -0.1328,-0.28062 0.0778,-0.6236 0.2106,-0.34299 0.30696,-0.87681 0.21411,-1.18627 -0.0928,-0.30946 -0.03,-0.63741 0.13957,-0.72878 0.1696,-0.0914 0.30838,-0.62078 0.30838,-1.17648 0,-0.5557 0.21582,-1.58236 0.47959,-2.28145 0.26376,-0.6991 0.48801,-1.91018 0.49836,-2.69129 0.0102,-0.78112 0.0925,-1.52422 0.18266,-1.65134 0.0901,-0.12713 0.25587,-1.15663 0.36829,-2.28779 0.11245,-1.13115 0.35317,-2.72408 0.53495,-3.53984 0.37697,-1.69133 0.69396,-4.66815 0.72122,-6.77262 0.0204,-1.5864 -0.52712,-2.44515 -0.90232,-1.41482 -0.12476,0.34272 -0.36971,0.62314 -0.54431,0.62314 -0.17456,0 -0.3174,0.20023 -0.3174,0.44496 0,0.24472 -0.16071,0.44496 -0.35712,0.44496 -0.19642,0 -0.9092,1.01322 -1.58396,2.25163 -0.67477,1.2384 -1.43299,2.32058 -1.68494,2.40485 -0.25196,0.0843 -0.4581,0.32282 -0.4581,0.53011 0,0.20731 -0.23345,0.54576 -0.51875,0.75214 -0.28531,0.20638 -0.44507,0.43943 -0.35505,0.51789 0.09,0.0785 -0.21258,0.57262 -0.67245,1.09813 -0.45991,0.5255 -0.83616,1.26798 -0.83616,1.64994 0,0.38197 -0.32877,0.99952 -0.73065,1.37234 -1.17044,1.08589 -0.39119,1.58517 2.47403,1.58517 1.28742,0 2.34075,0.1293 2.34075,0.28733 0,0.15803 -0.22181,0.21315 -0.49292,0.12248 -0.27109,-0.0907 -0.83602,0.11374 -1.25536,0.45426 -0.71901,0.58383 -0.72486,0.6202 -0.10272,0.63793 0.59397,0.017 0.58529,0.045 -0.0872,0.28103 -0.4899,0.17197 -0.82438,0.62172 -0.97182,1.30673 -0.12365,0.57447 -0.51498,1.33611 -0.86965,1.69251 -0.35463,0.35641 -0.64481,0.9347 -0.64481,1.28509 0,0.95499 -0.79204,2.25801 -1.27629,2.09965 -0.23398,-0.0765 -0.42543,-0.01 -0.42543,0.14821 0,0.15802 0.38289,0.28732 0.85086,0.28732 0.46797,0 0.85086,0.10091 0.85086,0.22423 0,0.42886 -1.88581,0.90534 -4.13712,1.04532 -3.39584,0.21114 -3.51053,0.3455 -3.57394,4.18608 -0.032,1.9387 -0.22446,3.5095 -0.48118,3.92759 -0.36454,0.59369 -0.3352,0.78598 0.19846,1.29992 0.49745,0.47909 0.53955,0.67802 0.20471,0.96696 -0.33339,0.2877 -0.49408,0.25177 -0.76819,-0.17178 -0.26226,-0.40523 -0.45681,-0.45586 -0.79936,-0.20806 -0.31278,0.22624 -0.52093,0.23132 -0.6733,0.0165 -0.1213,-0.1711 -0.74756,-0.31106 -1.39166,-0.31106 -0.74856,0 -1.17113,-0.1426 -1.17113,-0.39519 0,-0.62441 -2.1366,-1.08757 -2.67966,-0.58088 -0.33422,0.31184 -0.55602,0.33057 -0.90708,0.0766 -0.65135,-0.47113 -1.85875,-0.0666 -1.85875,0.62279 0,0.93076 -0.95674,0.62962 -1.65077,-0.51961 -0.47838,-0.79215 -0.52147,-6.15005 -0.0556,-6.90881 0.26543,-0.43231 0.1246,-0.7437 -0.673,-1.48788 -1.12133,-1.04627 -0.20131,-0.96805 -9.53268,-0.81053 l -3.91395,0.0661 -0.18749,1.77984 c -0.10309,0.97891 -0.0775,2.31379 0.0569,2.9664 0.1344,0.6526 0.11901,2.56064 -0.0341,4.24008 -0.15318,1.67944 -0.19603,3.84623 -0.0952,4.81509 0.12793,1.22982 0.047,1.90467 -0.26816,2.23563 -0.28368,0.29793 -0.47791,1.42962 -0.52277,3.04586 -0.0392,1.41447 -0.24665,3.43944 -0.46089,4.49993 -0.21424,1.06049 -0.37053,3.10183 -0.34732,4.53632 0.0483,2.98729 -0.25478,4.95614 -0.76305,4.95614 -0.19256,0 -0.27003,-0.26698 -0.17211,-0.59328 0.19658,-0.65523 -0.40307,-0.80256 -1.03274,-0.25373 -0.29256,0.25497 -0.44585,0.14414 -0.61548,-0.44496 -0.12426,-0.43148 -0.34609,-0.78451 -0.49295,-0.78451 -0.3692,0 -0.72504,0.88338 -0.48958,1.21542 0.10608,0.14958 -0.0466,0.35205 -0.33923,0.44993 -0.29266,0.0979 -0.53444,0.39728 -0.53729,0.66534 -0.004,0.26807 -0.15602,0.68762 -0.34035,0.93234 -0.28136,0.37358 -0.38367,0.3793 -0.63777,0.0357 -0.29409,-0.39772 -1.5956,-0.36414 -2.76046,0.0712 -0.81342,0.30402 -2.72275,-1.44564 -2.72275,-2.49505 0,-0.49972 0.18243,-0.87683 0.42544,-0.87942 0.28595,-0.003 0.30573,-0.076 0.0602,-0.22248 -0.47193,-0.28164 -0.9381,-1.35154 -0.4818,-1.10576 0.41315,0.22255 0.41315,0.22709 3.5e-4,-1.02713 -0.18481,-0.56161 -0.20577,-1.09468 -0.0466,-1.1846 0.15918,-0.0899 0.0772,-1.94891 -0.18219,-4.1311 -0.31451,-2.64593 -0.37013,-4.45429 -0.16697,-5.42853 0.16759,-0.8035 0.26067,-2.95596 0.20689,-4.78324 -0.0538,-1.82728 -0.12773,-5.2579 -0.16434,-7.6236 -0.0952,-6.14914 0.25035,-5.64141 -3.77054,-5.53925 -1.92638,0.049 -3.36817,-0.0328 -3.36817,-0.19106 0,-0.15215 -0.45947,-0.19654 -1.02103,-0.0987 -0.92856,0.16186 -1.02467,0.10476 -1.06133,-0.63036 -0.0221,-0.44459 -0.0269,-0.896 -0.0105,-1.00313 0.24794,-1.62544 0.28854,-3.21657 0.0821,-3.21657 -0.43771,0 -1.15397,2.27127 -0.9744,3.08997 0.0924,0.42149 0.0197,0.76635 -0.1615,0.76635 -0.18123,0 -0.2414,0.20023 -0.13365,0.44496 0.10775,0.24472 0.0476,0.44496 -0.13375,0.44496 -0.1813,0 -0.32966,0.40046 -0.32966,0.88991 0,0.48946 -0.15315,0.88992 -0.34034,0.88992 -0.18719,0 -0.34096,0.56732 -0.3417,1.26072 -0.004,1.66039 -0.89055,6.38898 -1.50296,7.99651 -0.26683,0.70041 -0.58345,2.20788 -0.70363,3.34994 -0.12017,1.14206 -0.33929,2.34345 -0.4869,2.66975 -0.24416,0.53978 -0.93774,2.83667 -1.7915,5.93279 -0.17993,0.65261 -0.52668,2.46547 -0.77053,4.02858 -0.24382,1.56311 -0.60928,3.11225 -0.81209,3.44254 -0.20282,0.33029 -0.53397,1.52091 -0.73586,2.64581 -0.51824,2.88703 -0.64492,3.18352 -1.19124,2.78832 -0.35345,-0.25566 -0.50067,-0.13042 -0.67912,0.57766 -0.27527,1.09231 -0.61796,1.14747 -1.12327,0.1808 z m 73.61285,-4.61621 c 0.11568,-0.16316 0.0482,-0.29664 -0.15009,-0.29664 -0.19821,0 -0.36042,0.13348 -0.36042,0.29664 0,0.16315 0.0676,0.29663 0.15009,0.29663 0.0825,0 0.24474,-0.13348 0.36042,-0.29663 z m -41.86224,-0.29664 c 0.11569,-0.16315 0.0482,-0.29664 -0.15009,-0.29664 -0.19822,0 -0.36043,0.13349 -0.36043,0.29664 0,0.16315 0.0676,0.29664 0.15009,0.29664 0.0825,0 0.24475,-0.13349 0.36043,-0.29664 z m -4.93498,-4.44959 c -0.26993,-0.14541 -0.56739,-0.19764 -0.66098,-0.11606 -0.0936,0.0816 0.0507,0.26728 0.32063,0.4127 0.26994,0.14541 0.5674,0.19763 0.66099,0.11606 0.0936,-0.0816 -0.0507,-0.2673 -0.32064,-0.4127 z m -0.34035,-2.69094 c 0,-0.5462 -0.0567,-0.56503 -0.51051,-0.16951 -0.28078,0.24473 -0.51052,0.52124 -0.51052,0.61447 0,0.0932 0.22974,0.1695 0.51052,0.1695 0.2895,0 0.51051,-0.26604 0.51051,-0.61446 z M 121.773,188.80287 c 0,-0.16315 -0.15315,-0.29664 -0.34035,-0.29664 -0.18718,0 -0.34034,0.13349 -0.34034,0.29664 0,0.16315 0.15316,0.29664 0.34034,0.29664 0.1872,0 0.34035,-0.13349 0.34035,-0.29664 z m 59.90044,-4.44959 c 0,-0.6526 -0.13351,-1.18655 -0.2967,-1.18655 -0.1632,0 -0.28066,0.53395 -0.26101,1.18655 0.0197,0.65261 0.15315,1.18656 0.2967,1.18656 0.14356,0 0.26101,-0.53395 0.26101,-1.18656 z M 122.79403,183.76 c 0,-0.16315 -0.16221,-0.29663 -0.36042,-0.29663 -0.19825,0 -0.26578,0.13348 -0.15009,0.29663 0.11568,0.16315 0.27789,0.29664 0.36042,0.29664 0.0826,0 0.15009,-0.13349 0.15009,-0.29664 z m -0.34034,-7.11934 c 0,-0.16315 -0.15316,-0.29664 -0.34035,-0.29664 -0.18718,0 -0.34034,0.13349 -0.34034,0.29664 0,0.16315 0.15316,0.29664 0.34034,0.29664 0.18719,0 0.34035,-0.13349 0.34035,-0.29664 z m 28.0638,-8.02976 c -0.32006,-0.45135 -0.83139,-0.31348 -0.6198,0.16712 0.10731,0.24379 0.33476,0.36805 0.50537,0.27613 0.17062,-0.0919 0.22211,-0.29137 0.11443,-0.44325 z m -27.46112,-2.89027 c 0.0753,-0.19677 -0.17824,-0.35226 -0.57433,-0.35226 -0.707,0 -0.91889,0.31149 -0.47505,0.69834 0.31532,0.27482 0.8836,0.0874 1.04938,-0.34608 z m 26.28445,-0.38728 c 0,-0.16315 -0.15316,-0.21414 -0.34034,-0.11331 -0.1872,0.10084 -0.34035,0.31683 -0.34035,0.47998 0,0.16315 0.15315,0.21414 0.34035,0.11331 0.18718,-0.10084 0.34034,-0.31682 0.34034,-0.47998 z m 44.7169,-2.68868 c -0.1104,-0.15573 -0.41317,-0.2121 -0.67275,-0.12527 -0.25961,0.0868 -0.43557,0.0185 -0.39102,-0.15196 0.0445,-0.1704 -0.29427,-0.53269 -0.75295,-0.80508 -0.79163,-0.47013 -0.82185,-0.4677 -0.59559,0.0481 0.1311,0.29886 0.23834,0.72291 0.23834,0.94233 0,0.21942 0.26802,0.44902 0.5956,0.51021 0.86546,0.16169 1.81182,-0.0891 1.57837,-0.41835 z m 1.5698,-1.13261 c 0,-0.16316 -0.31536,-0.29664 -0.70076,-0.29664 -0.38544,0 -0.60612,0.13348 -0.49044,0.29664 0.11569,0.16315 0.43105,0.29663 0.70077,0.29663 0.26976,0 0.49043,-0.13348 0.49043,-0.29663 z m -28.93028,-4.45633 c 0,-0.0853 1.01008,-0.0813 2.24328,0.009 2.20569,0.16131 2.25048,0.15003 2.75099,-0.69357 0.39027,-0.65779 0.534,-2.26205 0.61701,-6.88658 0.0595,-3.31596 0.194,-6.14995 0.29879,-6.29776 0.10482,-0.14781 0.20965,-2.55192 0.233,-5.34246 0.0286,-3.42939 0.1651,-5.10936 0.4209,-5.18368 0.26877,-0.0781 0.24733,-0.38596 -0.0739,-1.06194 -0.3638,-0.76549 -0.37982,-1.66233 -0.0818,-4.57837 0.20387,-1.99452 0.31962,-4.56081 0.25723,-5.70287 -0.14335,-2.62467 -0.15005,-2.66199 -0.43461,-2.41396 -0.32023,0.27909 -0.47104,0.90134 -0.73671,3.03971 -0.12385,0.99677 -0.42407,2.02118 -0.66718,2.27647 -0.29514,0.30999 -0.36379,0.82728 -0.20665,1.55737 0.14682,0.6822 0.0964,1.16804 -0.13423,1.29226 -0.20322,0.10947 -0.40859,0.70492 -0.45637,1.32322 -0.0478,0.61829 -0.20132,1.18582 -0.34116,1.26116 -0.13988,0.0753 -0.16731,0.33465 -0.0609,0.57623 0.10636,0.24158 0.0245,0.61668 -0.18208,0.83355 -0.20653,0.21687 -0.31173,0.44988 -0.23382,0.51779 0.0779,0.0679 -0.0908,0.92329 -0.37496,1.90086 -0.28415,0.97756 -0.68409,2.51157 -0.8888,3.4089 -0.20468,0.89734 -0.5112,1.71394 -0.68117,1.81467 -0.16997,0.10073 -0.37131,0.83492 -0.44748,1.63151 -0.0761,0.79661 -0.23433,1.98232 -0.35147,2.63493 -0.11718,0.6526 -0.24849,1.66932 -0.29175,2.25937 -0.0433,0.59005 -0.19229,1.23299 -0.33112,1.42877 -0.13882,0.19578 -0.16183,0.43492 -0.0511,0.53141 0.11072,0.0965 0.0323,0.35289 -0.17415,0.56976 -0.20652,0.21688 -0.28657,0.59625 -0.17794,0.84306 0.11664,0.26491 0.008,0.44873 -0.26502,0.44873 -0.26172,0 -0.53305,0.41862 -0.6248,0.96408 -0.0892,0.53025 -0.48652,2.03198 -0.88289,3.3372 -0.39636,1.30521 -0.72299,2.71036 -0.72585,3.12256 -0.005,0.69223 0.1116,0.74885 1.52522,0.7416 0.84177,-0.004 1.53096,-0.0776 1.53154,-0.16291 z m 26.46279,-0.13774 c 0.23399,-0.0735 0.42543,-0.2855 0.42543,-0.47122 0,-0.18574 -0.2124,-0.26665 -0.47198,-0.17984 -0.33041,0.11052 -0.42094,-0.0123 -0.30175,-0.40961 0.10605,-0.35343 -0.0407,-0.63803 -0.38898,-0.75453 -0.34681,-0.11599 -0.48693,-0.38577 -0.36883,-0.71007 0.11459,-0.31474 -0.017,-0.59238 -0.3302,-0.69717 -0.28636,-0.0958 -0.52066,-0.43902 -0.52066,-0.76277 0,-0.84224 -0.71785,-2.09974 -1.19862,-2.09974 -0.25447,0 -0.34616,-0.28521 -0.24294,-0.75578 0.10312,-0.47013 -0.0316,-0.89058 -0.35675,-1.1124 -0.28742,-0.19614 -0.87505,-1.09079 -1.30593,-1.98813 -0.43084,-0.89733 -0.98169,-1.80874 -1.22407,-2.02535 -0.2945,-0.26317 -0.33668,-0.55589 -0.12712,-0.88226 0.41102,-0.64019 -0.15643,-1.57451 -0.82126,-1.35215 -0.316,0.10568 -0.50016,0.56793 -0.49785,1.24967 0.004,0.59506 -0.038,3.75169 -0.0889,7.01472 l -0.0926,5.93278 1.93016,0.001 c 1.06159,6e-4 2.01588,0.0761 2.12067,0.16741 0.20622,0.17974 3.16694,0.0533 3.86215,-0.16491 z m -6.72698,-15.65156 c 0.004,-0.12237 -0.14795,-0.22249 -0.33514,-0.22249 -0.18719,0 -0.338,0.30035 -0.33514,0.66744 0.004,0.53972 0.0683,0.5823 0.33514,0.22249 0.18147,-0.24473 0.33228,-0.54508 0.33514,-0.66744 z m -1.21677,-6.70517 c 0.23348,-0.32926 -1.44602,-0.9978 -1.89673,-0.75502 -0.19104,0.1029 0.0102,0.35633 0.45092,0.56796 0.99197,0.4763 1.21983,0.50578 1.44581,0.18706 z m 1.79059,-12.99543 c -0.10064,-0.0877 -0.36268,-0.0627 -0.5823,0.0556 -0.2961,0.15949 -0.27993,0.27975 0.0624,0.46515 0.45385,0.24576 0.89374,-0.19491 0.51988,-0.52077 z m -34.7586,82.38614 c -0.10768,-0.15188 -0.0402,-0.35999 0.15009,-0.46246 0.19026,-0.10248 0.3459,0.0218 0.3459,0.27614 0,0.52105 -0.20425,0.59777 -0.49599,0.18632 z M 38.218688,197.99869 c -0.115683,-0.16315 -0.139197,-0.397 -0.05221,-0.51965 0.08696,-0.12266 0.203392,-0.82346 0.258694,-1.55735 0.05529,-0.7339 0.236845,-1.41649 0.403478,-1.51688 0.305492,-0.1841 0.455718,-1.28792 0.80263,-5.89858 0.104353,-1.38679 0.319791,-2.73459 0.47873,-2.9951 0.172585,-0.28284 0.142875,-0.60109 -0.07379,-0.78992 -0.214105,-0.18661 -0.242968,-0.47882 -0.07042,-0.71288 0.314069,-0.42606 1.027936,-3.00317 1.301338,-4.69791 0.09213,-0.57104 0.229186,-1.30522 0.304603,-1.63153 0.07542,-0.3263 0.246239,-1.76129 0.379591,-3.18886 0.133345,-1.42758 0.345786,-2.5956 0.472089,-2.5956 0.126296,0 0.270097,-0.8343 0.319512,-1.85399 0.04941,-1.0197 0.23242,-2.52144 0.40664,-3.3372 0.174227,-0.81575 0.386223,-2.81807 0.471143,-4.44959 0.08488,-1.63151 0.316621,-3.41993 0.514972,-3.97426 0.328533,-0.91806 1.040191,-4.73605 1.22207,-6.55643 0.04073,-0.40788 0.200466,-1.34229 0.354908,-2.07647 0.154449,-0.73419 0.24423,-1.69131 0.199512,-2.12694 -0.04475,-0.43564 0.158666,-1.19656 0.451974,-1.69095 0.293345,-0.49439 0.533316,-1.52864 0.533316,-2.29835 0,-1.69771 0.589787,-4.99052 1.102379,-6.15463 0.205901,-0.46764 0.426546,-1.46879 0.490296,-2.22479 0.152506,-1.80811 0.353718,-3.22203 1.158256,-8.13906 0.368525,-2.25212 0.605406,-4.1877 0.52641,-4.30128 -0.07903,-0.11357 -0.005,-0.94068 0.16418,-1.83801 0.169322,-0.89734 0.376521,-2.3657 0.460487,-3.26304 0.143657,-1.53534 0.665169,-4.57295 1.069528,-6.22942 0.09955,-0.40788 0.236916,-1.9872 0.30522,-3.50961 0.06827,-1.5224 0.29508,-3.45797 0.503914,-4.30126 0.208835,-0.8433 0.470799,-2.82157 0.582122,-4.396162 l 0.202474,-2.862895 -2.634194,-0.215144 c -1.448775,-0.118327 -7.572915,-0.11813 -13.609139,5.9e-4 l -10.975024,0.215592 0.145227,-0.993861 c 0.07988,-0.546628 0.44816,-1.577662 0.818421,-2.291185 0.370261,-0.713531 0.72418,-1.647944 0.786532,-2.076475 0.06239,-0.428688 0.347866,-1.246511 0.634469,-1.817538 0.286604,-0.571035 0.80025,-1.865774 1.141447,-2.877204 0.496557,-1.471972 0.790138,-1.883946 1.471198,-2.064326 0.693251,-0.183616 14.077084,-0.42242 22.535605,-0.402098 2.428794,0.0061 2.739901,-0.390145 2.868212,-3.650657 0.0502,-1.275943 0.172521,-2.544078 0.271732,-2.818074 0.251408,-0.694313 0.845068,-5.580872 1.087635,-8.952391 0.111495,-1.549946 0.351336,-2.979075 0.532942,-3.17585 0.229086,-0.248199 2.150186,-0.384482 6.272287,-0.444961 6.897434,-0.101199 6.523602,-0.301407 6.08143,3.256713 -0.136379,1.097584 -0.29787,2.451765 -0.358859,3.009287 -0.06103,0.557522 -0.220064,1.558683 -0.353481,2.224798 -0.342416,1.70946 -0.447758,2.448896 -0.637224,4.47415 -0.09159,0.978905 -0.335783,2.324627 -0.542681,2.990484 -0.206855,0.665858 -0.325162,1.600277 -0.262875,2.076475 l 0.11323,0.865821 19.399577,0.02028 c 10.669752,0.01112 19.629299,0.04674 19.910079,0.07911 0.28078,0.03236 1.02968,-0.02802 1.66421,-0.134193 0.63454,-0.106171 2.22017,-0.01764 3.52361,0.196714 1.52658,0.251055 2.55122,0.290079 2.87934,0.109665 0.2802,-0.154041 1.51069,-0.206855 2.73439,-0.117357 1.22371,0.0895 3.39084,0.05515 4.81586,-0.07628 1.58645,-0.146341 4.2466,-0.105126 6.86126,0.106307 3.16059,0.255573 4.82695,0.259846 6.41233,0.01642 1.51794,-0.233045 3.19913,-0.241301 5.76985,-0.02835 1.9953,0.165294 4.54671,0.302872 5.66985,0.305728 15.16955,0.0386 26.08167,-0.100799 27.12867,-0.346523 0.97005,-0.227666 1.50622,-0.201041 2.22037,0.110249 0.75509,0.32913 3.26671,0.399269 12.68338,0.354201 8.04721,-0.03853 11.8933,0.04558 12.22319,0.267172 0.47798,0.321091 13.97716,0.490103 13.98127,0.175048 0,-0.08158 5.24749,-0.122756 11.65874,-0.09151 6.41122,0.03127 12.72884,-0.06329 14.03916,-0.21005 1.31033,-0.146763 3.83738,-0.160838 5.61567,-0.03127 2.515,0.18325 3.35262,0.147536 3.77056,-0.160756 0.29553,-0.217987 0.71673,-0.396339 0.93595,-0.396339 0.79746,0 0.26778,0.959478 -0.70172,1.271127 -0.3574,0.114881 -0.51072,0.369416 -0.38901,0.645806 0.13998,0.317938 -0.008,0.456187 -0.48843,0.456187 -1.04615,0 -1.76598,0.313794 -1.76598,0.769838 0,0.225347 0.26803,0.390146 0.59561,0.366221 1.21805,-0.08898 2.12714,0.05942 2.12714,0.347133 0,0.163151 -0.42117,0.298687 -0.93594,0.301183 -0.68116,0.0034 -0.80539,0.07658 -0.4563,0.269193 0.2638,0.145555 0.68498,0.195975 0.93594,0.112039 0.25097,-0.08394 0.4563,-0.0137 0.4563,0.156063 0,0.169771 -0.40936,0.350911 -0.9097,0.402538 -1.03298,0.106585 -1.52171,0.833037 -0.5651,0.840004 0.49805,0.0034 0.52712,0.058 0.14396,0.269383 -0.26401,0.145663 -0.50099,0.513058 -0.52665,0.816432 -0.0255,0.303374 -0.16742,0.721948 -0.31505,0.930167 -0.37802,0.533075 0.40044,1.242508 1.36334,1.242508 0.45297,0 0.8092,0.176534 0.8092,0.400999 0,0.309831 -0.87049,0.413724 -3.82886,0.45694 -2.10588,0.0308 -5.13068,0.171392 -6.72178,0.312497 -1.82806,0.16212 -3.04152,0.150134 -3.2966,-0.03256 -0.26418,-0.189212 -0.64319,-0.177396 -1.09676,0.03419 -0.42962,0.200391 -3.44635,0.338084 -7.93476,0.362165 -3.98291,0.02137 -12.7552,0.06661 -19.49399,0.100568 -10.82857,0.05454 -31.99228,0.357301 -31.99228,0.457673 0,0.02055 -4.28834,0.07989 -9.52962,0.131907 -19.94328,0.197956 -30.07162,0.256515 -33.52383,0.193818 -1.96549,-0.03568 -6.71327,0.01228 -10.55065,0.106673 -7.36315,0.181079 -44.093934,0.509226 -52.316185,0.467386 -5.523195,-0.02808 -5.36184,-0.103526 -5.897163,2.755991 -0.156457,0.83569 -0.45678,2.186876 -0.667349,3.002626 -0.210606,0.81576 -0.520279,2.88482 -0.68821,4.59791 -0.167924,1.7131 -0.398945,3.64866 -0.513409,4.30127 -0.114492,0.65261 -0.235654,1.92074 -0.269279,2.81808 -0.0337,0.89733 -0.208934,1.83174 -0.389586,2.07647 -0.18066,0.24473 -0.361212,1.31975 -0.401269,2.38894 -0.04001,1.0692 -0.160093,2.27059 -0.266798,2.66976 -0.249909,0.93496 -0.425219,1.93386 -1.19477,6.80687 -0.347801,2.20255 -0.895208,5.60649 -1.216426,7.5643 -0.321176,1.95782 -0.700221,4.56083 -0.842279,5.78447 -0.142022,1.22364 -0.486489,2.75874 -0.765434,3.41135 -0.278945,0.65261 -0.619389,2.75504 -0.756549,4.67207 -0.13716,1.91703 -0.365428,3.48551 -0.507249,3.48551 -0.141786,0 -0.357088,1.03732 -0.478386,2.30515 -0.121334,1.26783 -0.445643,3.23678 -0.720744,4.37543 -0.275102,1.13866 -0.595223,3.27167 -0.711423,4.74003 -0.116156,1.46837 -0.357324,3.13696 -0.535868,3.70799 -0.17858,0.57104 -0.400444,2.23963 -0.493086,3.708 -0.09264,1.46836 -0.256013,2.86998 -0.363083,3.11471 -0.525521,1.20136 -0.685413,2.3516 -0.365629,2.63033 0.236708,0.20632 0.21564,0.58091 -0.06597,1.17349 -0.227522,0.47874 -0.632562,2.18813 -0.900106,3.79865 -0.267507,1.61053 -0.543599,3.26194 -0.613466,3.66982 -0.06985,0.40788 -0.296887,1.11125 -0.504459,1.56304 -0.20758,0.4518 -0.555711,2.354 -0.773566,4.22711 -0.371624,3.19487 -0.718945,4.0406 -1.205498,2.93547 -0.20043,-0.45521 -1.544343,-0.42222 -3.029059,0.0744 -0.324008,0.10836 -0.486345,-0.0402 -0.486345,-0.44484 0,-0.33413 -0.153159,-0.69002 -0.340344,-0.79085 -0.187192,-0.10083 -0.340343,0.0105 -0.340343,0.2474 0,0.2369 -0.229738,0.50756 -0.510519,0.60148 -0.280781,0.0939 -0.510512,0.36088 -0.510512,0.59327 0,0.45265 -0.822781,0.85658 -1.154992,0.56702 -0.110269,-0.0961 -0.02998,-0.35389 0.178579,-0.57284 0.428935,-0.45047 0.456435,-0.43177 -0.82836,-0.56366 -1.02491,-0.10522 -1.694812,0.63702 -0.941324,1.04291 0.59941,0.32288 -0.150943,2.58399 -0.986861,2.97392 -0.828224,0.38634 -2.290989,0.38922 -2.563402,0.005 z M 200.32015,93.355174 c 2.75396,0.08881 5.92609,0.06105 7.04922,-0.06159 1.12313,-0.122695 2.19522,-0.141438 2.38241,-0.04165 0.18719,0.09979 2.71423,0.200011 5.61566,0.222721 2.90143,0.02272 5.88794,0.08946 6.6367,0.148323 1.12953,0.0888 1.35334,0.01865 1.3141,-0.41209 -0.0531,-0.582728 0.88714,-0.706692 1.47484,-0.194455 0.40607,0.35393 3.84874,0.54458 3.84813,0.213103 -2e-4,-0.112107 0.5272,-0.129215 1.17198,-0.03799 1.76556,0.249719 4.3665,-0.156442 4.15007,-0.648071 -0.21431,-0.486793 0.6489,-1.199957 0.94575,-0.781343 0.11143,0.157141 0.0102,0.347167 -0.22497,0.422285 -0.32162,0.102746 -0.33122,0.226045 -0.0386,0.497775 0.28732,0.266846 0.56878,0.277293 1.07756,0.03995 0.37873,-0.176676 1.16411,-0.272971 1.74525,-0.213997 0.58114,0.05895 1.13906,-0.0091 1.23987,-0.151219 0.10078,-0.142137 -0.0465,-0.258436 -0.32728,-0.258436 -0.28078,0 -0.58144,-0.100114 -0.66813,-0.222477 -0.0867,-0.122369 0.4786,-0.222483 1.25622,-0.222483 1.02984,0 1.41381,-0.120844 1.41381,-0.444954 0,-0.334069 -0.36049,-0.431707 -1.44646,-0.391774 -1.80603,0.06641 -1.85051,-0.269817 -0.11428,-0.864247 0.9583,-0.328092 1.43587,-0.365692 1.70172,-0.13399 0.4326,0.377068 0.41688,0.414464 0.50676,-1.205587 0.0695,-1.252276 0.0618,-1.260952 -1.13973,-1.295817 -0.66535,-0.01933 -1.66919,-0.124948 -2.23076,-0.234782 -1.01531,-0.198566 -1.01673,-0.201748 -0.25525,-0.568613 1.10417,-0.531976 0.98237,-1.237977 -0.2136,-1.237977 -1.0665,0 -2.25382,0.886577 -1.48812,1.111191 0.85627,0.251191 0.39051,0.609231 -0.93594,0.719486 -1.14924,0.09552 -1.36138,0.02673 -1.36138,-0.441576 0,-0.305253 -0.3061,-0.6245 -0.68069,-0.709874 -0.37437,-0.08533 -0.68068,-0.277991 -0.68068,-0.428125 0,-0.389182 -13.56006,-0.285351 -14.28523,0.10938 -0.40593,0.220937 -1.19988,0.217885 -2.6864,-0.01038 -2.09659,-0.321879 -3.10864,-0.232394 -3.10864,0.274871 0,0.145697 -0.38288,0.264899 -0.85085,0.264899 -0.46797,0 -0.85086,0.133488 -0.85086,0.296638 0,0.163158 0.45947,0.296646 1.02103,0.296646 1.34061,0 1.31233,0.468342 -0.0425,0.704515 -1.71584,0.2991 -1.90858,0.235324 -1.86777,-0.618009 0.0323,-0.678861 -0.14624,-0.845932 -1.15277,-1.07777 -0.65517,-0.1509 -1.80383,-0.264031 -2.55258,-0.251414 -16.07677,0.270991 -19.73675,0.404973 -19.96795,0.730976 -0.32231,0.454532 2.209,0.956656 4.82267,0.956656 1.57384,0 1.86436,-0.08265 1.82461,-0.519116 -0.0259,-0.285514 0.16544,-0.519122 0.42543,-0.519122 0.25999,0 0.4727,0.185949 0.4727,0.413222 0,0.51879 0.74127,0.773338 2.25206,0.773338 1.06986,0 1.14263,0.05325 0.81103,0.593277 -0.20036,0.326301 -0.5796,0.593276 -0.84276,0.593276 -0.70083,0 -1.02177,0.617866 -0.47712,0.918547 0.33963,0.187503 0.35167,0.260186 0.0436,0.263475 -0.23399,0.002 -0.42544,0.147021 -0.42544,0.321167 0,0.364729 1.46733,0.04735 1.64499,-0.355843 0.19366,-0.439412 0.94448,-0.284191 1.57838,0.326309 0.45558,0.438774 0.75815,0.512807 1.21839,0.298117 0.33677,-0.157087 0.96842,-0.265178 1.40361,-0.240202 0.43523,0.02496 1.34082,-0.09244 2.01242,-0.260918 1.05353,-0.264302 1.27574,-0.230033 1.61949,0.249746 0.21914,0.305843 0.70345,0.556077 1.07626,0.556077 0.37278,0 0.6778,0.11792 0.6778,0.262044 0,0.424143 -1.36593,0.611687 -2.27091,0.311792 -0.46008,-0.152453 -1.35777,-0.277191 -1.99485,-0.277191 -0.92662,0 -1.11616,0.09587 -0.94738,0.47919 0.15996,0.363324 0.0545,0.44108 -0.43612,0.321573 -0.99526,-0.24242 -3.84265,-0.550922 -4.13255,-0.447742 -0.14209,0.05053 -0.22003,0.192054 -0.17324,0.314417 0.0468,0.122363 -0.24746,0.222477 -0.6539,0.222477 -0.4064,0 -0.98363,0.192977 -1.28265,0.428844 -0.43367,0.342073 -0.85225,0.36789 -2.06885,0.127607 -0.83884,-0.165681 -2.36753,-0.226066 -3.39706,-0.1342 -1.02955,0.09187 -2.21649,0.182062 -2.63767,0.200418 -1.04386,0.04552 -0.96456,0.186892 0.37939,0.676317 0.65706,0.239279 1.78125,0.361262 2.63765,0.286185 0.82088,-0.07196 2.41144,-0.0156 3.53457,0.125233 1.26887,0.159108 2.20805,0.147284 2.48039,-0.0312 0.2634,-0.172641 2.43666,-0.22285 5.4455,-0.125823 z m 7.13431,-0.859892 c 0.23399,-0.0823 0.61687,-0.0823 0.85086,0 0.23398,0.08229 0.0425,0.149618 -0.42543,0.149618 -0.46797,0 -0.65942,-0.06736 -0.42543,-0.149618 z m 11.31642,-1.350349 c -0.83163,-0.31536 -0.82009,-0.32795 0.51052,-0.557386 0.74875,-0.129099 2.4845,-0.24242 3.85721,-0.251828 1.84681,-0.01262 2.4553,-0.113525 2.33986,-0.387894 -0.0858,-0.203938 -0.33967,-0.334115 -0.56415,-0.289285 -0.22453,0.04484 -0.30352,-0.06614 -0.17559,-0.246517 0.26969,-0.38035 1.90678,-0.100758 2.2508,0.384407 0.21782,0.307186 0.9291,0.44395 2.58725,0.497477 0.43527,0.01404 0.76577,0.213597 0.76577,0.462332 0,0.347181 -0.18041,0.377834 -0.87301,0.148323 -1.35804,-0.450021 -3.59317,-0.34834 -4.28172,0.194788 -0.5258,0.414721 -0.76397,0.429834 -1.66238,0.105493 -0.78728,-0.284232 -1.14573,-0.293986 -1.43812,-0.03914 -0.48226,0.420344 -2.18119,0.409694 -3.31644,-0.02082 z m 12.93305,-0.872285 c 0,-0.90551 0.0214,-0.919083 0.65628,-0.418221 0.39517,0.311683 0.91774,0.445347 1.31336,0.33592 0.36756,-0.101688 0.82076,-0.0098 1.02875,0.208639 0.29746,0.312409 0.14512,0.36734 -0.76261,0.274973 -0.62388,-0.06349 -1.23807,0.0308 -1.36481,0.209582 -0.44054,0.621298 -0.87097,0.319409 -0.87097,-0.610893 z m -19.46339,0.436617 c 0.2457,-0.08569 0.53924,-0.07515 0.65234,0.0234 0.11309,0.09857 -0.088,0.168679 -0.44671,0.155797 -0.3965,-0.01424 -0.47712,-0.08452 -0.20563,-0.17922 z m 2.36113,0.0061 c 0.23398,-0.08229 0.61687,-0.08229 0.85086,0 0.23399,0.08229 0.0425,0.149619 -0.42543,0.149619 -0.46797,0 -0.65941,-0.06736 -0.42543,-0.149619 z m 21.18638,-0.04633 c 0,-0.358502 0.6457,-0.776479 0.88173,-0.570763 0.0857,0.07466 -0.0777,0.304608 -0.36298,0.510989 -0.32346,0.233974 -0.51875,0.256474 -0.51875,0.05976 z m -13.87403,-1.153668 c -0.42396,-0.07102 -0.69182,-0.240541 -0.59527,-0.376715 0.21953,-0.309601 1.53625,-0.03141 1.53625,0.324599 0,0.144117 -0.0383,0.243865 -0.0851,0.221643 -0.0468,-0.02218 -0.43197,-0.09851 -0.8559,-0.169527 z m -21.8265,-1.218882 c -0.63566,-0.05413 -1.36362,-0.279626 -1.61772,-0.5011 -0.38912,-0.339148 -0.11279,-0.398807 1.7513,-0.378139 1.51157,0.01676 2.21329,0.140441 2.21329,0.390098 0,0.448441 -0.81941,0.619223 -2.34687,0.489141 z m 13.95888,-1.129724 -0.76587,-0.333736 0.7882,-0.148058 c 0.43353,-0.08143 3.08551,-0.114786 5.89335,-0.07413 9.78055,0.141607 9.1499,0.09824 8.67528,0.596675 -0.31672,0.332603 -0.54329,0.36462 -0.87621,0.123808 -0.24695,-0.178637 -0.75957,-0.238893 -1.13916,-0.133888 -0.37959,0.105012 -0.9406,0.06875 -1.24675,-0.08056 -0.31696,-0.154604 -1.16244,-0.167071 -1.96385,-0.02896 -2.30153,0.396637 -8.51566,0.448956 -9.36499,0.07884 z m -30.41598,5.63758 c 0.23398,-0.05169 0.42543,-0.200961 0.42543,-0.33164 0,-0.130679 -1.16997,-0.200676 -2.59992,-0.155547 -1.55656,0.04911 -2.78404,-0.05115 -3.05874,-0.249854 -0.25236,-0.182551 -0.69848,-0.25176 -0.99138,-0.153797 -0.32575,0.108946 -0.44599,0.05603 -0.30965,-0.136207 0.14438,-0.203593 -0.17813,-0.280766 -0.91548,-0.219079 -0.71592,0.0599 -1.17674,0.272151 -1.24182,0.571991 -0.19035,0.876993 5.01187,1.6206 7.2451,1.035619 0.56157,-0.147101 1.21247,-0.309771 1.44646,-0.361486 z m 8.93401,-2.48577 c 0,-0.16315 -0.1622,-0.296638 -0.36042,-0.296638 -0.19825,0 -0.26577,0.133488 -0.15009,0.296638 0.11568,0.163151 0.27789,0.296639 0.36042,0.296639 0.0826,0 0.15009,-0.133488 0.15009,-0.296639 z m -3.06308,-0.130815 c 0,-0.07194 -0.15316,-0.213312 -0.34035,-0.314145 -0.18719,-0.100833 -0.34034,-0.04199 -0.34034,0.130815 0,0.172776 0.15315,0.314145 0.34034,0.314145 0.18719,0 0.34035,-0.05888 0.34035,-0.130815 z m 1.29119,-0.388307 c -0.0559,-0.290072 0.0877,-0.486393 0.32543,-0.444954 0.23399,0.04077 0.42544,-0.05935 0.42544,-0.222484 0,-0.16315 0.33693,-0.296638 0.74875,-0.296638 0.55768,0 0.65036,-0.08575 0.36321,-0.336029 -0.22384,-0.195099 -0.64491,-0.240032 -1.00401,-0.107134 -0.34014,0.125897 -0.89194,0.255145 -1.22616,0.28723 -0.73381,0.07044 -1.63245,0.74921 -0.99193,0.74921 0.22463,0 0.40842,0.200234 0.40842,0.444961 0,0.244726 0.23644,0.44496 0.52542,0.44496 0.31162,0 0.48475,-0.21125 0.42543,-0.519122 z m -19.3294,-0.08347 c 0,-0.5539 -0.97532,-0.645507 -1.76165,-0.165463 -0.76482,0.466897 -0.76009,0.471415 0.49472,0.471415 0.69682,0 1.26693,-0.13768 1.26693,-0.305952 z m 3.32543,-0.231709 c 0.0741,-0.193743 -0.10776,-0.352261 -0.40416,-0.352261 -0.29637,0 -0.53886,0.21136 -0.53886,0.469679 0,0.523844 0.73269,0.432616 0.94302,-0.117418 z m 68.73521,0.358441 c -0.11309,-0.09857 -0.40664,-0.109116 -0.65233,-0.0234 -0.2715,0.09469 -0.19086,0.164989 0.20564,0.17922 0.35875,0.01289 0.55979,-0.05725 0.44669,-0.155805 z m 0.77286,-1.879747 c 0,-0.153526 -0.15316,-0.361636 -0.34034,-0.462469 -0.1872,-0.100833 -0.34035,0.02476 -0.34035,0.279131 0,0.254358 0.15315,0.462468 0.34035,0.462468 0.18718,0 0.34034,-0.125612 0.34034,-0.27913 z m -8.97278,-2.597449 c -0.13944,-0.121529 -0.396,-0.02456 -0.57015,0.215415 -0.52399,0.722186 -0.36682,1.043135 0.24832,0.506994 0.31641,-0.2758 0.46127,-0.600887 0.32183,-0.722409 z M 60.681356,197.40541 c -0.115683,-0.16315 -0.01771,-0.29664 0.218164,-0.29664 0.322646,0 0.331932,-0.0842 0.0375,-0.34076 -0.294398,-0.2566 -0.261247,-0.55938 0.134127,-1.22581 0.28882,-0.48676 0.461849,-1.26078 0.384488,-1.72004 -0.07733,-0.45925 -0.01735,-0.76868 0.133037,-0.68761 0.150505,0.0811 0.186611,-0.23182 0.08026,-0.69533 -0.10636,-0.4635 -0.01807,-1.57141 0.196242,-2.46201 0.527228,-2.19113 0.651243,-3.0229 0.838572,-5.62393 0.08815,-1.22364 0.258931,-2.82549 0.379518,-3.55967 0.120617,-0.73418 0.271696,-1.73534 0.335747,-2.22479 0.06411,-0.48946 0.203729,-1.29039 0.310362,-1.77984 0.106626,-0.48945 0.253753,-2.15805 0.326934,-3.70799 0.119591,-2.53255 0.683405,-7.19862 1.057445,-8.75086 0.07862,-0.3263 0.228332,-1.37988 0.332685,-2.34127 0.104345,-0.96141 0.272441,-1.86465 0.373559,-2.00721 0.335783,-0.47355 0.505069,-1.78274 0.209961,-1.62377 -0.159656,0.086 -0.09935,-0.67087 0.13399,-1.68192 0.630217,-2.73043 0.813351,-3.69418 1.154275,-6.07404 0.17014,-1.18761 0.480975,-2.92295 0.690763,-3.85632 0.209788,-0.93336 0.45987,-2.36446 0.55571,-3.18022 0.09588,-0.81576 0.305729,-1.60278 0.46641,-1.74893 0.160674,-0.14616 0.204711,-0.64674 0.09785,-1.1124 -0.106834,-0.46566 -0.05974,-0.84666 0.104589,-0.84666 0.164381,0 0.281972,-0.70081 0.261276,-1.55736 -0.02072,-0.85654 0.07879,-1.75782 0.220989,-2.00284 0.142194,-0.24501 0.335374,-1.24617 0.429343,-2.22479 0.09397,-0.97862 0.197261,-1.77931 0.229595,-1.77931 0.03234,0 0.115001,-0.40046 0.183714,-0.88992 0.126611,-0.90198 0.249307,-1.47977 0.598428,-2.81808 0.958507,-3.67452 1.924608,-9.94202 2.406328,-15.61106 0.07106,-0.83638 0.211595,-1.6373 0.312305,-1.77983 0.100738,-0.14253 0.294191,-0.92658 0.429952,-1.74234 0.429716,-2.58245 0.461405,-2.60187 3.845608,-2.35879 1.622994,0.11658 3.640079,0.40493 4.48243,0.64079 0.842343,0.23586 2.897169,0.61824 4.56628,0.84972 1.669111,0.23149 3.27724,0.58829 3.573611,0.7929 0.296371,0.20461 1.246638,0.68181 2.111728,1.06044 0.865082,0.37864 2.366442,1.32765 3.336386,2.10892 0.969945,0.78128 2.138276,1.59532 2.596346,1.80899 0.45803,0.21365 0.83282,0.50227 0.83282,0.64134 0,0.13909 0.400717,0.78066 0.890497,1.42573 0.48979,0.64507 0.80277,1.37211 0.69556,1.61565 -0.10724,0.24355 -0.0445,0.52389 0.13955,0.623 0.18399,0.0991 0.30283,0.33698 0.2641,0.52862 -0.0387,0.19164 0.11092,0.88238 0.33249,1.53498 0.53706,1.58166 0.96143,10.5307 0.49938,10.5307 -0.18916,0 -0.43152,0.73941 -0.53852,1.64313 -0.14295,1.20716 -0.66735,2.40745 -1.976477,4.52375 -0.98005,1.58434 -1.947717,3.17993 -2.150363,3.54574 -0.202639,0.36582 -0.499483,0.66617 -0.659647,0.66744 -0.160172,0.001 -0.746274,0.33603 -1.302429,0.74392 -0.556155,0.40787 -1.229148,0.74159 -1.495573,0.74159 -0.266417,0 -0.484409,0.19554 -0.484409,0.43453 0,0.23898 -0.344596,0.59268 -0.765771,0.786 -0.421175,0.19332 -0.842351,0.43162 -0.935947,0.52955 -0.0936,0.0979 -0.476478,0.32585 -0.850855,0.50647 -0.460078,0.22197 -0.703627,0.67861 -0.751415,1.40904 -0.03894,0.59435 0.0431,1.08064 0.182323,1.08064 0.139168,0 0.278063,0.2336 0.308626,0.51912 0.42849,4.00216 0.902042,6.38525 1.648516,8.29613 0.49602,1.2698 0.940099,2.84268 0.986761,3.49528 0.04668,0.65261 0.180724,1.52028 0.297834,1.92815 0.117109,0.40789 0.279899,1.40904 0.361785,2.2248 0.08188,0.81576 0.38983,2.0673 0.684365,2.78121 0.294528,0.71391 0.535496,1.74843 0.535496,2.29896 0,0.55051 0.114865,1.00093 0.255259,1.00093 0.140387,0 0.279147,0.50059 0.308383,1.1124 0.168605,3.53108 0.413179,5.44491 0.881353,6.89686 0.289322,0.89734 0.530871,2.03199 0.536722,2.52144 0.0057,0.48945 0.32816,1.92199 0.716186,3.18342 0.38806,1.26143 0.70553,2.75528 0.70553,3.31968 0,0.5644 0.13158,1.09706 0.29236,1.18367 0.16081,0.0866 0.39289,1.01248 0.51572,2.05748 0.12283,1.04498 0.432507,2.2835 0.688207,2.75225 0.25566,0.46875 0.55581,1.2861 0.66697,1.81635 0.16633,0.79322 0.0945,0.96407 -0.40501,0.96407 -0.33391,0 -0.904387,0.19599 -1.267777,0.43553 -0.88347,0.58241 -1.08631,0.56141 -1.34133,-0.13889 -0.118809,-0.3263 -0.399662,-0.59327 -0.624122,-0.59327 -0.224424,0 -0.913516,-0.73656 -1.531306,-1.6368 -0.61779,-0.90024 -1.274038,-1.55557 -1.458341,-1.45629 -0.184295,0.0993 -0.702802,-0.16532 -1.152231,-0.588 -0.982401,-0.92389 -1.060816,-0.93456 -1.288603,-0.17523 -0.09792,0.3263 -0.327651,0.59328 -0.510555,0.59328 -0.450003,0 -0.718937,-1.3493 -0.365693,-1.83481 0.214069,-0.29421 0.284998,-0.2625 0.288949,0.12913 0.0057,0.57451 0.276156,0.64225 0.990296,0.24812 0.393437,-0.21714 0.352218,-0.43453 -0.241097,-1.27125 -0.408382,-0.57592 -0.63736,-1.27047 -0.533251,-1.61748 0.223807,-0.74597 -0.662717,-1.58479 -1.681503,-1.59103 -0.496937,-0.003 -0.601246,-0.0822 -0.316313,-0.23983 0.529099,-0.29285 0.314987,-3.45833 -0.275948,-4.07892 -0.551193,-0.57884 -1.720269,-0.56125 -1.463482,0.022 0.134678,0.30589 -0.02108,0.44496 -0.498264,0.44496 -0.381792,0 -0.766825,-0.2336 -0.855653,-0.51912 -0.506331,-1.62782 -0.552412,-2.15063 -0.189537,-2.15063 0.286432,0 0.288884,-0.10461 0.0095,-0.3981 -0.416449,-0.43736 -0.183757,-0.78845 0.522631,-0.78845 0.249573,0 0.453775,0.20023 0.453775,0.44495 0,0.24473 0.229738,0.44496 0.510519,0.44496 0.604961,0 0.590598,0.0911 0.18147,-1.15224 -0.21554,-0.65504 -0.211423,-1.1916 0.0119,-1.5554 0.187566,-0.30546 0.215884,-0.55539 0.06296,-0.55539 -0.152951,0 -0.311925,-0.35634 -0.35328,-0.79187 -0.09682,-1.01985 -0.278637,-1.15824 -0.915897,-0.69728 -0.574025,0.41523 -0.716864,2.08243 -0.178407,2.08243 0.187192,0 0.340343,0.13349 0.340343,0.29664 0,0.16315 -0.136514,0.29664 -0.303384,0.29664 -0.31366,0 -1.561288,-2.34947 -1.457107,-2.74391 0.03234,-0.12237 -0.06985,-0.22248 -0.226941,-0.22248 -0.157139,0 -0.46015,-0.33372 -0.673373,-0.7416 -0.213223,-0.40788 -0.257404,-0.7416 -0.09816,-0.7416 0.445614,0 0.158566,-2.34961 -0.489206,-4.00463 -0.319311,-0.81576 -0.580595,-1.78354 -0.58063,-2.15063 -2.9e-5,-0.3671 -0.16469,-0.66744 -0.365937,-0.66744 -0.245557,0 -0.236773,-0.11251 0.02653,-0.34209 0.253697,-0.22112 0.283205,-0.52005 0.08346,-0.84539 -0.551867,-0.89874 -1.701173,-5.00283 -1.701173,-6.07474 0,-0.57402 -0.114865,-1.04387 -0.25526,-1.0441 -0.140394,-2.2e-4 -0.274929,-0.49539 -0.298959,-1.10037 -0.02417,-0.60497 -0.216421,-1.15014 -0.427536,-1.21148 -0.211115,-0.0613 -0.293137,-0.23948 -0.182223,-0.39587 0.274966,-0.38776 -0.827033,-1.80397 -1.233372,-1.58508 -0.454491,0.24483 -0.40831,1.32682 0.05658,1.32682 0.259103,0 0.273194,0.11934 0.04389,0.3708 -0.543362,0.5958 -1.767712,5.94193 -2.019874,8.81986 -0.09267,1.05765 -0.311681,2.15618 -0.486689,2.44119 -0.175002,0.28501 -0.221291,0.85464 -0.102883,1.26588 0.141993,0.49305 0.07392,0.74768 -0.19982,0.74768 -0.290075,0 -0.347795,0.3127 -0.191646,1.03824 0.152506,0.70846 0.09635,1.03824 -0.176808,1.03824 -0.270369,0 -0.33503,0.35057 -0.199233,1.07994 0.110577,0.59397 0.06705,1.2982 -0.09677,1.56496 -0.163772,0.26676 -0.374033,1.41601 -0.467221,2.55389 -0.09315,1.13788 -0.342351,2.8698 -0.553702,3.84871 -0.556973,2.5794 -0.973824,4.85271 -1.169493,6.37774 -0.725405,5.65386 -1.061124,6.94208 -1.749161,6.71196 -0.238171,-0.0797 -0.514427,0.12633 -0.613875,0.45776 -0.100745,0.33582 -0.344051,0.51464 -0.549586,0.40393 -0.202847,-0.10927 -0.280681,-0.32293 -0.172994,-0.4748 0.204575,-0.28852 0.154069,-0.30684 -1.168366,-0.42381 -0.863319,-0.0764 -2.162442,0.68052 -1.871757,1.0905 0.09506,0.13404 -0.277074,0.24372 -0.826998,0.24372 -0.790038,0 -1.088553,0.18672 -1.422736,0.88991 -0.232592,0.48946 -0.612692,0.88993 -0.844667,0.88993 -0.231947,0 -0.985943,0.33371 -1.675544,0.7416 -1.424371,0.84249 -1.447921,0.84853 -1.734087,0.44495 z m 34.629945,-5.83261 c -0.233983,-0.0823 -0.616872,-0.0823 -0.850855,0 -0.23399,0.0823 -0.04252,0.14963 0.425428,0.14963 0.467973,0 0.659411,-0.0674 0.425427,-0.14963 z m 1.956978,-1.33618 c 0,-0.13595 -0.229731,-0.24719 -0.510519,-0.24719 -0.280781,0 -0.510512,0.11124 -0.510512,0.24719 0,0.13597 0.229731,0.24721 0.510512,0.24721 0.280788,0 0.510519,-0.11124 0.510519,-0.24721 z M 87.057972,173.08099 c 0,-0.32631 -0.153152,-0.59328 -0.340344,-0.59328 -0.187185,0 -0.340343,0.0558 -0.340343,0.12406 0,0.0682 -0.09294,0.3352 -0.20659,0.59328 -0.135554,0.3079 -0.01836,0.46922 0.340343,0.46922 0.320029,0 0.546934,-0.24613 0.546934,-0.59328 z m -0.557618,-1.33488 c -0.107752,-0.24473 -0.332649,-0.44496 -0.499827,-0.44496 -0.167142,0 -0.303929,0.20023 -0.303929,0.44496 0,0.24473 0.224933,0.44496 0.499834,0.44496 0.304467,0 0.423283,-0.17392 0.303922,-0.44496 z m -5.23809,-25.67088 c -0.355553,-0.196 -0.374277,-0.27729 -0.06454,-0.28051 0.23987,-0.002 0.524266,0.19569 0.632017,0.44041 0.107752,0.24473 0.41787,0.44496 0.689192,0.44496 0.595094,0 2.496962,-1.75364 2.496962,-2.30236 0,-0.21468 0.62106,-0.95248 1.380162,-1.63957 1.016743,-0.92034 1.240794,-1.27451 0.850863,-1.34516 -0.584337,-0.10588 -0.725477,-0.8354 -0.191889,-0.99178 0.185557,-0.0544 0.371824,-0.46275 0.413889,-0.90749 0.04209,-0.44475 0.27313,-0.87439 0.513445,-0.95477 0.240351,-0.0804 0.436966,-0.35057 0.436966,-0.60042 0,-0.24984 0.234535,-0.45426 0.521203,-0.45426 0.286669,0 0.616736,-0.23361 0.733509,-0.51912 0.116773,-0.28552 0.373288,-0.69945 0.570003,-0.91985 0.196722,-0.2204 0.391093,-0.5992 0.431967,-0.84177 0.04087,-0.24258 0.315568,-0.67346 0.610505,-0.95751 0.294944,-0.28406 0.536248,-0.73955 0.536248,-1.01222 0,-0.27267 0.153152,-0.49577 0.340344,-0.49577 0.187192,0 0.340344,-0.34649 0.340344,-0.76998 0,-0.80908 0.973515,-2.49304 1.441252,-2.49304 0.150397,0 0.181541,-0.31916 0.0692,-0.70924 -0.112312,-0.39008 -0.03865,-0.79842 0.163707,-0.90742 0.20233,-0.10901 0.367909,-0.56853 0.367909,-1.02117 0,-0.45263 0.110233,-0.91904 0.244948,-1.03646 0.134707,-0.11742 0.281562,-1.95902 0.326281,-4.09246 0.06045,-2.88344 -0.0426,-4.08787 -0.401534,-4.69289 -0.265571,-0.44765 -0.396191,-0.88947 -0.290247,-0.98182 0.332413,-0.28974 -0.969844,-2.87371 -1.448265,-2.87371 -0.250419,0 -1.110267,-0.56921 -1.910753,-1.26492 -1.335028,-1.16031 -4.083886,-2.32748 -4.541713,-1.92844 -0.523957,0.45667 -1.106659,3.40864 -0.929786,4.71024 0.144546,1.0638 0.08199,1.44951 -0.235073,1.44951 -0.312979,0 -0.382646,0.38151 -0.252908,1.38489 0.099,0.76555 -0.0088,1.86 -0.24134,2.44728 -0.231266,0.58431 -0.442244,1.93006 -0.468892,2.99054 -0.02653,1.06049 -0.216557,2.90555 -0.422057,4.10015 -0.205535,1.19461 -0.293273,2.35458 -0.195051,2.57772 0.09826,0.22315 -0.129538,1.16991 -0.506159,2.10391 -0.376622,0.93401 -0.763255,2.37704 -0.859167,3.20675 -0.09591,0.82971 -0.309609,1.77553 -0.474915,2.10184 -0.528554,1.04343 -1.600771,6.44512 -1.659072,8.3583 -0.02044,0.66872 0.14421,0.97586 0.566876,1.0578 0.808418,0.15672 1.026954,-0.0432 0.415561,-0.38019 z m 9.199143,43.21483 c 0,-0.56707 -0.177626,-1.08263 -0.394728,-1.14571 -0.290584,-0.0844 -0.296643,-0.26701 -0.0228,-0.69216 0.304438,-0.47277 0.405485,-0.4968 0.557417,-0.13251 0.348885,0.83649 0.449322,2.68405 0.15455,2.84284 -0.161871,0.0872 -0.294334,-0.3054 -0.294334,-0.87246 z m -3.23326,-4.3435 c -0.115683,-0.16315 0.104991,-0.29664 0.490433,-0.29664 0.385406,0 0.700766,0.13349 0.700766,0.29664 0,0.16315 -0.220681,0.29664 -0.490433,0.29664 -0.269723,0 -0.585083,-0.13349 -0.700766,-0.29664 z m -1.985324,-6.13055 c -0.353072,-0.30772 -0.266798,-1.28543 0.113431,-1.28543 0.187192,0 0.340344,0.33371 0.340344,0.7416 0,0.77661 -0.07862,0.87083 -0.453775,0.54383 z m 41.294987,-4.54847 c 0,-0.16315 0.16221,-0.29663 0.36042,-0.29663 0.19825,0 0.26578,0.13348 0.1501,0.29663 -0.11569,0.16315 -0.27789,0.29664 -0.36043,0.29664 -0.0826,0 -0.15009,-0.13349 -0.15009,-0.29664 z m -1.17667,-0.27614 c -0.10768,-0.15187 -0.0402,-0.35998 0.15009,-0.46246 0.19025,-0.10248 0.34589,0.0218 0.34589,0.27614 0,0.52106 -0.20424,0.59778 -0.49598,0.18632 z m 1.29011,-0.76209 c 0,-0.21362 0.2042,-0.3201 0.45381,-0.23662 0.24957,0.0835 0.45378,0.18995 0.45378,0.23662 0,0.0467 -0.20421,0.15314 -0.45378,0.23662 -0.24961,0.0835 -0.45381,-0.023 -0.45381,-0.23662 z m -0.28361,-5.48783 c -0.64951,-0.24326 -0.6456,-0.25589 0.0851,-0.27579 0.42118,-0.0115 0.76578,0.11264 0.76578,0.27579 0,0.16315 -0.0383,0.28726 -0.0851,0.27579 -0.0468,-0.0115 -0.39139,-0.13557 -0.76577,-0.27579 z m 1.40432,-1.09629 c 0.0865,-0.45752 0.152,-1.16558 0.1456,-1.57346 -0.009,-0.53643 0.0711,-0.6285 0.28729,-0.33279 0.16441,0.22483 0.4586,0.32278 0.65379,0.21763 0.19519,-0.10513 0.44633,-0.0622 0.5581,0.0954 0.11177,0.15763 -0.10166,0.42883 -0.4743,0.60265 -0.37268,0.17382 -0.59972,0.49285 -0.50456,0.70896 0.0951,0.21609 -0.0511,0.55503 -0.32509,0.75318 -0.42122,0.3047 -0.4738,0.23194 -0.34083,-0.4716 z m 1.4886,-4.63148 c 0,-0.77091 0.84623,-1.93945 1.18848,-1.64115 0.12269,0.10695 -0.0119,0.59039 -0.29896,1.07432 -0.28712,0.48393 -0.42605,0.96354 -0.30869,1.06581 0.11732,0.10225 0.0346,0.18593 -0.18375,0.18593 -0.2184,0 -0.39708,-0.30821 -0.39708,-0.68491 z"
   id="path419" /></g>
</svg>
